<svg id="Layer_1" data-name="Layer 1" xmlns="http://www.w3.org/2000/svg" viewBox="0 0 300 155"><defs><style>.cls-1,.cls-2{fill:#737581;}.cls-1{opacity:0.2;}</style></defs><title>OptA-Resources-state2</title><rect class="cls-1" width="300" height="155" transform="translate(300 155) rotate(-180)"/><circle class="cls-2" cx="4" cy="4" r="4"/><circle class="cls-2" cx="11.18" cy="4" r="3.93"/><circle class="cls-2" cx="18.35" cy="4" r="3.85"/><circle class="cls-2" cx="25.53" cy="4" r="3.78"/><circle class="cls-2" cx="32.71" cy="4" r="3.71"/><circle class="cls-2" cx="39.88" cy="4" r="3.63"/><circle class="cls-2" cx="47.06" cy="4" r="3.56"/><circle class="cls-2" cx="54.24" cy="4" r="3.49"/><circle class="cls-2" cx="61.41" cy="4" r="3.41"/><circle class="cls-2" cx="68.59" cy="4" r="3.34"/><circle class="cls-2" cx="75.77" cy="4" r="3.27"/><circle class="cls-2" cx="82.95" cy="4" r="3.2"/><circle class="cls-2" cx="90.12" cy="4" r="3.12"/><circle class="cls-2" cx="97.3" cy="4" r="3.05"/><circle class="cls-2" cx="104.48" cy="4" r="2.98"/><circle class="cls-2" cx="111.65" cy="4" r="2.9"/><circle class="cls-2" cx="118.83" cy="4" r="2.83"/><circle class="cls-2" cx="126.01" cy="4" r="2.76"/><circle class="cls-2" cx="133.18" cy="4" r="2.68"/><circle class="cls-2" cx="140.36" cy="4" r="2.61"/><circle class="cls-2" cx="147.54" cy="4" r="2.54"/><circle class="cls-2" cx="154.71" cy="4" r="2.46"/><circle class="cls-2" cx="161.89" cy="4" r="2.39"/><circle class="cls-2" cx="169.07" cy="4" r="2.32"/><circle class="cls-2" cx="176.24" cy="4" r="2.24"/><circle class="cls-2" cx="183.42" cy="4" r="2.17"/><circle class="cls-2" cx="190.6" cy="4" r="2.1"/><circle class="cls-2" cx="197.77" cy="4" r="2.02"/><circle class="cls-2" cx="204.95" cy="4" r="1.95"/><circle class="cls-2" cx="212.13" cy="4" r="1.88"/><circle class="cls-2" cx="219.3" cy="4" r="1.8"/><circle class="cls-2" cx="226.48" cy="4" r="1.73"/><circle class="cls-2" cx="233.66" cy="4" r="1.66"/><circle class="cls-2" cx="240.84" cy="4" r="1.59"/><circle class="cls-2" cx="248.01" cy="4" r="1.51"/><circle class="cls-2" cx="255.19" cy="4" r="1.44"/><circle class="cls-2" cx="262.37" cy="4" r="1.37"/><circle class="cls-2" cx="269.54" cy="4" r="1.29"/><circle class="cls-2" cx="276.72" cy="4" r="1.22"/><circle class="cls-2" cx="283.9" cy="4" r="1.15"/><circle class="cls-2" cx="291.07" cy="4" r="1.07"/><circle class="cls-2" cx="298.25" cy="4" r="1"/><circle class="cls-2" cx="4" cy="12.17" r="4"/><circle class="cls-2" cx="11.18" cy="12.17" r="3.93"/><circle class="cls-2" cx="18.35" cy="12.17" r="3.85"/><circle class="cls-2" cx="25.53" cy="12.17" r="3.78"/><circle class="cls-2" cx="32.71" cy="12.17" r="3.71"/><circle class="cls-2" cx="39.88" cy="12.17" r="3.63"/><circle class="cls-2" cx="47.06" cy="12.17" r="3.56"/><circle class="cls-2" cx="54.24" cy="12.17" r="3.49"/><circle class="cls-2" cx="61.41" cy="12.17" r="3.41"/><circle class="cls-2" cx="68.59" cy="12.17" r="3.34"/><circle class="cls-2" cx="75.77" cy="12.17" r="3.27"/><circle class="cls-2" cx="82.95" cy="12.17" r="3.2"/><circle class="cls-2" cx="90.12" cy="12.17" r="3.12"/><circle class="cls-2" cx="97.3" cy="12.17" r="3.05"/><circle class="cls-2" cx="104.48" cy="12.17" r="2.98"/><circle class="cls-2" cx="111.65" cy="12.17" r="2.9"/><circle class="cls-2" cx="118.83" cy="12.17" r="2.83"/><circle class="cls-2" cx="126.01" cy="12.17" r="2.76"/><circle class="cls-2" cx="133.18" cy="12.17" r="2.68"/><circle class="cls-2" cx="140.36" cy="12.17" r="2.61"/><circle class="cls-2" cx="147.54" cy="12.17" r="2.54"/><circle class="cls-2" cx="154.71" cy="12.17" r="2.46"/><circle class="cls-2" cx="161.89" cy="12.17" r="2.39"/><circle class="cls-2" cx="169.07" cy="12.17" r="2.32"/><circle class="cls-2" cx="176.24" cy="12.17" r="2.24"/><circle class="cls-2" cx="183.42" cy="12.17" r="2.17"/><circle class="cls-2" cx="190.6" cy="12.17" r="2.1"/><circle class="cls-2" cx="197.77" cy="12.17" r="2.02"/><circle class="cls-2" cx="204.95" cy="12.17" r="1.95"/><circle class="cls-2" cx="212.13" cy="12.17" r="1.88"/><circle class="cls-2" cx="219.3" cy="12.17" r="1.8"/><circle class="cls-2" cx="226.48" cy="12.17" r="1.73"/><circle class="cls-2" cx="233.66" cy="12.17" r="1.66"/><circle class="cls-2" cx="240.84" cy="12.17" r="1.59"/><circle class="cls-2" cx="248.01" cy="12.17" r="1.51"/><circle class="cls-2" cx="255.19" cy="12.17" r="1.44"/><circle class="cls-2" cx="262.37" cy="12.17" r="1.37"/><circle class="cls-2" cx="269.54" cy="12.17" r="1.29"/><circle class="cls-2" cx="276.72" cy="12.17" r="1.22"/><circle class="cls-2" cx="283.9" cy="12.17" r="1.15"/><circle class="cls-2" cx="291.07" cy="12.17" r="1.07"/><circle class="cls-2" cx="298.25" cy="12.17" r="1"/><circle class="cls-2" cx="4" cy="20.33" r="4"/><circle class="cls-2" cx="11.18" cy="20.33" r="3.93"/><circle class="cls-2" cx="18.35" cy="20.33" r="3.85"/><circle class="cls-2" cx="25.53" cy="20.33" r="3.78"/><circle class="cls-2" cx="32.71" cy="20.33" r="3.71"/><circle class="cls-2" cx="39.88" cy="20.33" r="3.63"/><circle class="cls-2" cx="47.06" cy="20.33" r="3.56"/><circle class="cls-2" cx="54.24" cy="20.33" r="3.49"/><circle class="cls-2" cx="61.41" cy="20.33" r="3.41"/><circle class="cls-2" cx="68.59" cy="20.33" r="3.34"/><circle class="cls-2" cx="75.77" cy="20.33" r="3.27"/><circle class="cls-2" cx="82.95" cy="20.33" r="3.2"/><circle class="cls-2" cx="90.12" cy="20.33" r="3.12"/><circle class="cls-2" cx="97.3" cy="20.33" r="3.05"/><circle class="cls-2" cx="104.48" cy="20.33" r="2.98"/><circle class="cls-2" cx="111.65" cy="20.33" r="2.9"/><circle class="cls-2" cx="118.83" cy="20.33" r="2.83"/><circle class="cls-2" cx="126.01" cy="20.33" r="2.76"/><circle class="cls-2" cx="133.18" cy="20.33" r="2.68"/><circle class="cls-2" cx="140.36" cy="20.33" r="2.61"/><circle class="cls-2" cx="147.54" cy="20.33" r="2.54"/><circle class="cls-2" cx="154.71" cy="20.33" r="2.46"/><circle class="cls-2" cx="161.89" cy="20.33" r="2.39"/><circle class="cls-2" cx="169.07" cy="20.33" r="2.32"/><circle class="cls-2" cx="176.24" cy="20.33" r="2.24"/><circle class="cls-2" cx="183.42" cy="20.33" r="2.17"/><circle class="cls-2" cx="190.6" cy="20.33" r="2.1"/><circle class="cls-2" cx="197.77" cy="20.33" r="2.02"/><circle class="cls-2" cx="204.95" cy="20.33" r="1.95"/><circle class="cls-2" cx="212.13" cy="20.33" r="1.88"/><circle class="cls-2" cx="219.3" cy="20.33" r="1.8"/><circle class="cls-2" cx="226.48" cy="20.33" r="1.73"/><circle class="cls-2" cx="233.66" cy="20.33" r="1.66"/><circle class="cls-2" cx="240.84" cy="20.33" r="1.59"/><circle class="cls-2" cx="248.01" cy="20.33" r="1.51"/><circle class="cls-2" cx="255.19" cy="20.33" r="1.44"/><circle class="cls-2" cx="262.37" cy="20.33" r="1.37"/><circle class="cls-2" cx="269.54" cy="20.33" r="1.29"/><circle class="cls-2" cx="276.72" cy="20.33" r="1.22"/><circle class="cls-2" cx="283.9" cy="20.33" r="1.15"/><circle class="cls-2" cx="291.07" cy="20.33" r="1.07"/><circle class="cls-2" cx="298.25" cy="20.33" r="1"/><circle class="cls-2" cx="4" cy="28.5" r="4"/><circle class="cls-2" cx="11.18" cy="28.5" r="3.93"/><circle class="cls-2" cx="18.35" cy="28.5" r="3.85"/><circle class="cls-2" cx="25.53" cy="28.5" r="3.78"/><circle class="cls-2" cx="32.71" cy="28.5" r="3.71"/><circle class="cls-2" cx="39.88" cy="28.5" r="3.63"/><circle class="cls-2" cx="47.06" cy="28.5" r="3.56"/><circle class="cls-2" cx="54.24" cy="28.5" r="3.49"/><circle class="cls-2" cx="61.41" cy="28.5" r="3.41"/><circle class="cls-2" cx="68.59" cy="28.5" r="3.34"/><circle class="cls-2" cx="75.77" cy="28.5" r="3.27"/><circle class="cls-2" cx="82.95" cy="28.5" r="3.2"/><circle class="cls-2" cx="90.12" cy="28.5" r="3.12"/><circle class="cls-2" cx="97.3" cy="28.5" r="3.05"/><circle class="cls-2" cx="104.48" cy="28.5" r="2.98"/><circle class="cls-2" cx="111.65" cy="28.5" r="2.9"/><circle class="cls-2" cx="118.83" cy="28.5" r="2.83"/><circle class="cls-2" cx="126.01" cy="28.5" r="2.76"/><circle class="cls-2" cx="133.18" cy="28.5" r="2.68"/><circle class="cls-2" cx="140.36" cy="28.5" r="2.61"/><circle class="cls-2" cx="147.54" cy="28.5" r="2.54"/><circle class="cls-2" cx="154.71" cy="28.5" r="2.46"/><circle class="cls-2" cx="161.89" cy="28.5" r="2.39"/><circle class="cls-2" cx="169.07" cy="28.5" r="2.32"/><circle class="cls-2" cx="176.24" cy="28.5" r="2.24"/><circle class="cls-2" cx="183.42" cy="28.5" r="2.17"/><circle class="cls-2" cx="190.6" cy="28.5" r="2.1"/><circle class="cls-2" cx="197.77" cy="28.5" r="2.02"/><circle class="cls-2" cx="204.95" cy="28.5" r="1.95"/><circle class="cls-2" cx="212.13" cy="28.5" r="1.88"/><circle class="cls-2" cx="219.3" cy="28.5" r="1.8"/><circle class="cls-2" cx="226.48" cy="28.5" r="1.73"/><circle class="cls-2" cx="233.66" cy="28.5" r="1.66"/><circle class="cls-2" cx="240.84" cy="28.5" r="1.59"/><circle class="cls-2" cx="248.01" cy="28.5" r="1.51"/><circle class="cls-2" cx="255.19" cy="28.5" r="1.44"/><circle class="cls-2" cx="262.37" cy="28.5" r="1.37"/><circle class="cls-2" cx="269.54" cy="28.5" r="1.29"/><circle class="cls-2" cx="276.72" cy="28.5" r="1.22"/><circle class="cls-2" cx="283.9" cy="28.5" r="1.15"/><circle class="cls-2" cx="291.07" cy="28.5" r="1.07"/><circle class="cls-2" cx="298.25" cy="28.5" r="1"/><circle class="cls-2" cx="4" cy="36.67" r="4"/><circle class="cls-2" cx="11.18" cy="36.67" r="3.93"/><circle class="cls-2" cx="18.35" cy="36.67" r="3.85"/><circle class="cls-2" cx="25.53" cy="36.67" r="3.78"/><circle class="cls-2" cx="32.71" cy="36.67" r="3.71"/><circle class="cls-2" cx="39.88" cy="36.67" r="3.63"/><circle class="cls-2" cx="47.06" cy="36.67" r="3.56"/><circle class="cls-2" cx="54.24" cy="36.67" r="3.49"/><circle class="cls-2" cx="61.41" cy="36.67" r="3.41"/><circle class="cls-2" cx="68.59" cy="36.67" r="3.34"/><circle class="cls-2" cx="75.77" cy="36.67" r="3.27"/><circle class="cls-2" cx="82.95" cy="36.67" r="3.2"/><circle class="cls-2" cx="90.12" cy="36.67" r="3.12"/><circle class="cls-2" cx="97.3" cy="36.67" r="3.05"/><circle class="cls-2" cx="104.48" cy="36.67" r="2.98"/><circle class="cls-2" cx="111.65" cy="36.67" r="2.9"/><circle class="cls-2" cx="118.83" cy="36.67" r="2.83"/><circle class="cls-2" cx="126.01" cy="36.67" r="2.76"/><circle class="cls-2" cx="133.18" cy="36.67" r="2.68"/><circle class="cls-2" cx="140.36" cy="36.67" r="2.61"/><circle class="cls-2" cx="147.54" cy="36.67" r="2.54"/><circle class="cls-2" cx="154.71" cy="36.67" r="2.46"/><circle class="cls-2" cx="161.89" cy="36.67" r="2.39"/><circle class="cls-2" cx="169.07" cy="36.67" r="2.32"/><circle class="cls-2" cx="176.24" cy="36.67" r="2.24"/><circle class="cls-2" cx="183.42" cy="36.67" r="2.17"/><circle class="cls-2" cx="190.6" cy="36.67" r="2.1"/><circle class="cls-2" cx="197.77" cy="36.67" r="2.02"/><circle class="cls-2" cx="204.95" cy="36.67" r="1.95"/><circle class="cls-2" cx="212.13" cy="36.67" r="1.88"/><circle class="cls-2" cx="219.3" cy="36.67" r="1.8"/><circle class="cls-2" cx="226.48" cy="36.67" r="1.73"/><circle class="cls-2" cx="233.66" cy="36.67" r="1.66"/><circle class="cls-2" cx="240.84" cy="36.67" r="1.59"/><circle class="cls-2" cx="248.01" cy="36.67" r="1.51"/><circle class="cls-2" cx="255.19" cy="36.67" r="1.44"/><circle class="cls-2" cx="262.37" cy="36.67" r="1.37"/><circle class="cls-2" cx="269.54" cy="36.67" r="1.29"/><circle class="cls-2" cx="276.72" cy="36.67" r="1.22"/><circle class="cls-2" cx="283.9" cy="36.67" r="1.15"/><circle class="cls-2" cx="291.07" cy="36.67" r="1.07"/><circle class="cls-2" cx="298.25" cy="36.67" r="1"/><circle class="cls-2" cx="4" cy="44.83" r="4"/><circle class="cls-2" cx="11.18" cy="44.83" r="3.93"/><circle class="cls-2" cx="18.35" cy="44.83" r="3.85"/><circle class="cls-2" cx="25.53" cy="44.83" r="3.78"/><circle class="cls-2" cx="32.71" cy="44.83" r="3.71"/><circle class="cls-2" cx="39.88" cy="44.83" r="3.63"/><circle class="cls-2" cx="47.06" cy="44.83" r="3.56"/><circle class="cls-2" cx="54.24" cy="44.83" r="3.49"/><circle class="cls-2" cx="61.41" cy="44.83" r="3.41"/><circle class="cls-2" cx="68.59" cy="44.83" r="3.34"/><circle class="cls-2" cx="75.77" cy="44.83" r="3.27"/><circle class="cls-2" cx="82.95" cy="44.83" r="3.2"/><circle class="cls-2" cx="90.12" cy="44.83" r="3.12"/><circle class="cls-2" cx="97.3" cy="44.83" r="3.05"/><circle class="cls-2" cx="104.48" cy="44.83" r="2.98"/><circle class="cls-2" cx="111.65" cy="44.83" r="2.9"/><circle class="cls-2" cx="118.83" cy="44.83" r="2.83"/><circle class="cls-2" cx="126.01" cy="44.83" r="2.76"/><circle class="cls-2" cx="133.18" cy="44.83" r="2.68"/><circle class="cls-2" cx="140.36" cy="44.83" r="2.61"/><circle class="cls-2" cx="147.54" cy="44.83" r="2.54"/><circle class="cls-2" cx="154.71" cy="44.83" r="2.46"/><circle class="cls-2" cx="161.89" cy="44.83" r="2.39"/><circle class="cls-2" cx="169.07" cy="44.83" r="2.32"/><circle class="cls-2" cx="176.24" cy="44.83" r="2.24"/><circle class="cls-2" cx="183.42" cy="44.83" r="2.17"/><circle class="cls-2" cx="190.6" cy="44.83" r="2.1"/><circle class="cls-2" cx="197.77" cy="44.83" r="2.02"/><circle class="cls-2" cx="204.95" cy="44.83" r="1.95"/><circle class="cls-2" cx="212.13" cy="44.83" r="1.88"/><circle class="cls-2" cx="219.3" cy="44.83" r="1.8"/><circle class="cls-2" cx="226.48" cy="44.83" r="1.73"/><circle class="cls-2" cx="233.66" cy="44.83" r="1.66"/><circle class="cls-2" cx="240.84" cy="44.83" r="1.59"/><circle class="cls-2" cx="248.01" cy="44.83" r="1.51"/><circle class="cls-2" cx="255.19" cy="44.83" r="1.44"/><circle class="cls-2" cx="262.37" cy="44.83" r="1.37"/><circle class="cls-2" cx="269.54" cy="44.83" r="1.29"/><circle class="cls-2" cx="276.72" cy="44.83" r="1.22"/><circle class="cls-2" cx="283.9" cy="44.83" r="1.15"/><circle class="cls-2" cx="291.07" cy="44.83" r="1.07"/><circle class="cls-2" cx="298.25" cy="44.83" r="1"/><circle class="cls-2" cx="4" cy="53" r="4"/><circle class="cls-2" cx="11.18" cy="53" r="3.93"/><circle class="cls-2" cx="18.35" cy="53" r="3.85"/><circle class="cls-2" cx="25.53" cy="53" r="3.78"/><circle class="cls-2" cx="32.71" cy="53" r="3.71"/><circle class="cls-2" cx="39.88" cy="53" r="3.63"/><circle class="cls-2" cx="47.06" cy="53" r="3.56"/><circle class="cls-2" cx="54.24" cy="53" r="3.49"/><circle class="cls-2" cx="61.41" cy="53" r="3.41"/><circle class="cls-2" cx="68.59" cy="53" r="3.34"/><circle class="cls-2" cx="75.77" cy="53" r="3.27"/><circle class="cls-2" cx="82.95" cy="53" r="3.2"/><circle class="cls-2" cx="90.12" cy="53" r="3.12"/><circle class="cls-2" cx="97.3" cy="53" r="3.05"/><circle class="cls-2" cx="104.48" cy="53" r="2.98"/><circle class="cls-2" cx="111.65" cy="53" r="2.9"/><circle class="cls-2" cx="118.83" cy="53" r="2.83"/><circle class="cls-2" cx="126.01" cy="53" r="2.76"/><circle class="cls-2" cx="133.18" cy="53" r="2.68"/><circle class="cls-2" cx="140.36" cy="53" r="2.61"/><circle class="cls-2" cx="147.54" cy="53" r="2.54"/><circle class="cls-2" cx="154.71" cy="53" r="2.46"/><circle class="cls-2" cx="161.89" cy="53" r="2.39"/><circle class="cls-2" cx="169.07" cy="53" r="2.32"/><circle class="cls-2" cx="176.24" cy="53" r="2.24"/><circle class="cls-2" cx="183.42" cy="53" r="2.17"/><circle class="cls-2" cx="190.6" cy="53" r="2.1"/><circle class="cls-2" cx="197.77" cy="53" r="2.02"/><circle class="cls-2" cx="204.95" cy="53" r="1.95"/><circle class="cls-2" cx="212.13" cy="53" r="1.88"/><circle class="cls-2" cx="219.3" cy="53" r="1.8"/><circle class="cls-2" cx="226.48" cy="53" r="1.73"/><circle class="cls-2" cx="233.66" cy="53" r="1.66"/><circle class="cls-2" cx="240.84" cy="53" r="1.59"/><circle class="cls-2" cx="248.01" cy="53" r="1.51"/><circle class="cls-2" cx="255.19" cy="53" r="1.44"/><circle class="cls-2" cx="262.37" cy="53" r="1.37"/><circle class="cls-2" cx="269.54" cy="53" r="1.29"/><circle class="cls-2" cx="276.72" cy="53" r="1.22"/><circle class="cls-2" cx="283.9" cy="53" r="1.15"/><circle class="cls-2" cx="291.07" cy="53" r="1.07"/><circle class="cls-2" cx="298.25" cy="53" r="1"/><circle class="cls-2" cx="4" cy="61.17" r="4"/><circle class="cls-2" cx="11.18" cy="61.17" r="3.93"/><circle class="cls-2" cx="18.35" cy="61.17" r="3.85"/><circle class="cls-2" cx="25.53" cy="61.17" r="3.78"/><circle class="cls-2" cx="32.71" cy="61.17" r="3.71"/><circle class="cls-2" cx="39.88" cy="61.17" r="3.63"/><circle class="cls-2" cx="47.06" cy="61.17" r="3.56"/><circle class="cls-2" cx="54.24" cy="61.17" r="3.49"/><circle class="cls-2" cx="61.41" cy="61.17" r="3.41"/><circle class="cls-2" cx="68.59" cy="61.17" r="3.34"/><circle class="cls-2" cx="75.77" cy="61.17" r="3.27"/><circle class="cls-2" cx="82.95" cy="61.17" r="3.2"/><circle class="cls-2" cx="90.12" cy="61.17" r="3.12"/><circle class="cls-2" cx="97.3" cy="61.17" r="3.05"/><circle class="cls-2" cx="104.48" cy="61.17" r="2.98"/><circle class="cls-2" cx="111.65" cy="61.17" r="2.9"/><circle class="cls-2" cx="118.83" cy="61.17" r="2.83"/><circle class="cls-2" cx="126.01" cy="61.17" r="2.76"/><circle class="cls-2" cx="133.18" cy="61.17" r="2.68"/><circle class="cls-2" cx="140.36" cy="61.17" r="2.61"/><circle class="cls-2" cx="147.54" cy="61.17" r="2.54"/><circle class="cls-2" cx="154.71" cy="61.17" r="2.46"/><circle class="cls-2" cx="161.89" cy="61.17" r="2.39"/><circle class="cls-2" cx="169.07" cy="61.17" r="2.32"/><circle class="cls-2" cx="176.24" cy="61.17" r="2.24"/><circle class="cls-2" cx="183.42" cy="61.17" r="2.17"/><circle class="cls-2" cx="190.6" cy="61.17" r="2.1"/><circle class="cls-2" cx="197.77" cy="61.17" r="2.02"/><circle class="cls-2" cx="204.95" cy="61.17" r="1.95"/><circle class="cls-2" cx="212.13" cy="61.17" r="1.88"/><circle class="cls-2" cx="219.3" cy="61.17" r="1.8"/><circle class="cls-2" cx="226.48" cy="61.17" r="1.73"/><circle class="cls-2" cx="233.66" cy="61.17" r="1.66"/><circle class="cls-2" cx="240.84" cy="61.17" r="1.59"/><circle class="cls-2" cx="248.01" cy="61.17" r="1.51"/><circle class="cls-2" cx="255.19" cy="61.17" r="1.44"/><circle class="cls-2" cx="262.37" cy="61.17" r="1.37"/><circle class="cls-2" cx="269.54" cy="61.17" r="1.29"/><circle class="cls-2" cx="276.72" cy="61.17" r="1.22"/><circle class="cls-2" cx="283.9" cy="61.17" r="1.15"/><circle class="cls-2" cx="291.07" cy="61.17" r="1.07"/><circle class="cls-2" cx="298.25" cy="61.17" r="1"/><circle class="cls-2" cx="4" cy="69.33" r="4"/><circle class="cls-2" cx="11.18" cy="69.33" r="3.93"/><circle class="cls-2" cx="18.35" cy="69.33" r="3.85"/><circle class="cls-2" cx="25.53" cy="69.33" r="3.78"/><circle class="cls-2" cx="32.71" cy="69.33" r="3.71"/><circle class="cls-2" cx="39.88" cy="69.33" r="3.63"/><circle class="cls-2" cx="47.06" cy="69.33" r="3.56"/><circle class="cls-2" cx="54.24" cy="69.33" r="3.49"/><circle class="cls-2" cx="61.41" cy="69.33" r="3.41"/><circle class="cls-2" cx="68.59" cy="69.33" r="3.34"/><circle class="cls-2" cx="75.77" cy="69.33" r="3.27"/><circle class="cls-2" cx="82.95" cy="69.33" r="3.2"/><circle class="cls-2" cx="90.12" cy="69.33" r="3.12"/><circle class="cls-2" cx="97.3" cy="69.33" r="3.05"/><circle class="cls-2" cx="104.48" cy="69.33" r="2.98"/><circle class="cls-2" cx="111.65" cy="69.33" r="2.9"/><circle class="cls-2" cx="118.83" cy="69.33" r="2.83"/><circle class="cls-2" cx="126.01" cy="69.33" r="2.76"/><circle class="cls-2" cx="133.18" cy="69.33" r="2.68"/><circle class="cls-2" cx="140.36" cy="69.33" r="2.61"/><circle class="cls-2" cx="147.54" cy="69.33" r="2.54"/><circle class="cls-2" cx="154.71" cy="69.33" r="2.46"/><circle class="cls-2" cx="161.89" cy="69.33" r="2.39"/><circle class="cls-2" cx="169.07" cy="69.33" r="2.32"/><circle class="cls-2" cx="176.24" cy="69.33" r="2.24"/><circle class="cls-2" cx="183.42" cy="69.33" r="2.17"/><circle class="cls-2" cx="190.6" cy="69.33" r="2.1"/><circle class="cls-2" cx="197.77" cy="69.33" r="2.02"/><circle class="cls-2" cx="204.95" cy="69.33" r="1.95"/><circle class="cls-2" cx="212.13" cy="69.33" r="1.88"/><circle class="cls-2" cx="219.3" cy="69.33" r="1.8"/><circle class="cls-2" cx="226.48" cy="69.33" r="1.73"/><circle class="cls-2" cx="233.66" cy="69.33" r="1.66"/><circle class="cls-2" cx="240.84" cy="69.33" r="1.59"/><circle class="cls-2" cx="248.01" cy="69.33" r="1.51"/><circle class="cls-2" cx="255.19" cy="69.33" r="1.44"/><circle class="cls-2" cx="262.37" cy="69.33" r="1.37"/><circle class="cls-2" cx="269.54" cy="69.33" r="1.29"/><circle class="cls-2" cx="276.72" cy="69.33" r="1.22"/><circle class="cls-2" cx="283.9" cy="69.33" r="1.15"/><circle class="cls-2" cx="291.07" cy="69.33" r="1.07"/><circle class="cls-2" cx="298.25" cy="69.33" r="1"/><circle class="cls-2" cx="4" cy="77.5" r="4"/><circle class="cls-2" cx="11.18" cy="77.5" r="3.93"/><circle class="cls-2" cx="18.35" cy="77.5" r="3.85"/><circle class="cls-2" cx="25.53" cy="77.5" r="3.78"/><circle class="cls-2" cx="32.71" cy="77.5" r="3.71"/><circle class="cls-2" cx="39.88" cy="77.5" r="3.63"/><circle class="cls-2" cx="47.06" cy="77.5" r="3.56"/><circle class="cls-2" cx="54.24" cy="77.5" r="3.49"/><circle class="cls-2" cx="61.41" cy="77.5" r="3.41"/><circle class="cls-2" cx="68.59" cy="77.5" r="3.34"/><circle class="cls-2" cx="75.77" cy="77.5" r="3.27"/><circle class="cls-2" cx="82.95" cy="77.5" r="3.2"/><circle class="cls-2" cx="90.12" cy="77.5" r="3.12"/><circle class="cls-2" cx="97.3" cy="77.5" r="3.05"/><circle class="cls-2" cx="104.48" cy="77.5" r="2.98"/><circle class="cls-2" cx="111.65" cy="77.5" r="2.9"/><circle class="cls-2" cx="118.83" cy="77.5" r="2.83"/><circle class="cls-2" cx="126.01" cy="77.5" r="2.76"/><circle class="cls-2" cx="133.18" cy="77.5" r="2.68"/><circle class="cls-2" cx="140.36" cy="77.5" r="2.61"/><circle class="cls-2" cx="147.54" cy="77.5" r="2.54"/><circle class="cls-2" cx="154.71" cy="77.5" r="2.46"/><circle class="cls-2" cx="161.89" cy="77.5" r="2.39"/><circle class="cls-2" cx="169.07" cy="77.5" r="2.32"/><circle class="cls-2" cx="176.24" cy="77.5" r="2.24"/><circle class="cls-2" cx="183.42" cy="77.5" r="2.17"/><circle class="cls-2" cx="190.6" cy="77.5" r="2.1"/><circle class="cls-2" cx="197.77" cy="77.5" r="2.02"/><circle class="cls-2" cx="204.95" cy="77.5" r="1.95"/><circle class="cls-2" cx="212.13" cy="77.5" r="1.88"/><circle class="cls-2" cx="219.3" cy="77.5" r="1.8"/><circle class="cls-2" cx="226.48" cy="77.5" r="1.73"/><circle class="cls-2" cx="233.66" cy="77.5" r="1.66"/><circle class="cls-2" cx="240.84" cy="77.5" r="1.59"/><circle class="cls-2" cx="248.01" cy="77.5" r="1.51"/><circle class="cls-2" cx="255.19" cy="77.5" r="1.44"/><circle class="cls-2" cx="262.37" cy="77.5" r="1.37"/><circle class="cls-2" cx="269.54" cy="77.5" r="1.29"/><circle class="cls-2" cx="276.72" cy="77.5" r="1.22"/><circle class="cls-2" cx="283.9" cy="77.5" r="1.15"/><circle class="cls-2" cx="291.07" cy="77.5" r="1.07"/><circle class="cls-2" cx="298.25" cy="77.5" r="1"/><circle class="cls-2" cx="4" cy="85.67" r="4"/><circle class="cls-2" cx="11.18" cy="85.67" r="3.93"/><circle class="cls-2" cx="18.35" cy="85.67" r="3.85"/><circle class="cls-2" cx="25.53" cy="85.67" r="3.78"/><circle class="cls-2" cx="32.71" cy="85.67" r="3.71"/><circle class="cls-2" cx="39.88" cy="85.67" r="3.63"/><circle class="cls-2" cx="47.06" cy="85.67" r="3.56"/><circle class="cls-2" cx="54.24" cy="85.67" r="3.49"/><circle class="cls-2" cx="61.41" cy="85.67" r="3.41"/><circle class="cls-2" cx="68.59" cy="85.67" r="3.34"/><circle class="cls-2" cx="75.77" cy="85.67" r="3.27"/><circle class="cls-2" cx="82.95" cy="85.67" r="3.2"/><circle class="cls-2" cx="90.12" cy="85.67" r="3.12"/><circle class="cls-2" cx="97.3" cy="85.67" r="3.05"/><circle class="cls-2" cx="104.48" cy="85.67" r="2.98"/><circle class="cls-2" cx="111.65" cy="85.67" r="2.9"/><circle class="cls-2" cx="118.83" cy="85.67" r="2.83"/><circle class="cls-2" cx="126.01" cy="85.67" r="2.76"/><circle class="cls-2" cx="133.18" cy="85.67" r="2.68"/><circle class="cls-2" cx="140.36" cy="85.67" r="2.61"/><circle class="cls-2" cx="147.54" cy="85.67" r="2.54"/><circle class="cls-2" cx="154.71" cy="85.67" r="2.46"/><circle class="cls-2" cx="161.89" cy="85.67" r="2.39"/><circle class="cls-2" cx="169.07" cy="85.67" r="2.32"/><circle class="cls-2" cx="176.24" cy="85.67" r="2.24"/><circle class="cls-2" cx="183.42" cy="85.67" r="2.17"/><circle class="cls-2" cx="190.6" cy="85.67" r="2.1"/><circle class="cls-2" cx="197.77" cy="85.67" r="2.02"/><circle class="cls-2" cx="204.95" cy="85.67" r="1.95"/><circle class="cls-2" cx="212.13" cy="85.67" r="1.88"/><circle class="cls-2" cx="219.3" cy="85.67" r="1.8"/><circle class="cls-2" cx="226.48" cy="85.67" r="1.73"/><circle class="cls-2" cx="233.66" cy="85.67" r="1.66"/><circle class="cls-2" cx="240.84" cy="85.67" r="1.59"/><circle class="cls-2" cx="248.01" cy="85.67" r="1.51"/><circle class="cls-2" cx="255.19" cy="85.67" r="1.44"/><circle class="cls-2" cx="262.37" cy="85.67" r="1.37"/><circle class="cls-2" cx="269.54" cy="85.67" r="1.29"/><circle class="cls-2" cx="276.72" cy="85.67" r="1.22"/><circle class="cls-2" cx="283.9" cy="85.67" r="1.15"/><circle class="cls-2" cx="291.07" cy="85.67" r="1.07"/><circle class="cls-2" cx="298.25" cy="85.67" r="1"/><circle class="cls-2" cx="4" cy="93.83" r="4"/><circle class="cls-2" cx="11.18" cy="93.83" r="3.93"/><circle class="cls-2" cx="18.35" cy="93.83" r="3.85"/><circle class="cls-2" cx="25.53" cy="93.83" r="3.78"/><circle class="cls-2" cx="32.71" cy="93.83" r="3.71"/><circle class="cls-2" cx="39.88" cy="93.83" r="3.63"/><circle class="cls-2" cx="47.06" cy="93.83" r="3.56"/><circle class="cls-2" cx="54.24" cy="93.83" r="3.49"/><circle class="cls-2" cx="61.41" cy="93.83" r="3.41"/><circle class="cls-2" cx="68.59" cy="93.83" r="3.34"/><circle class="cls-2" cx="75.77" cy="93.83" r="3.27"/><circle class="cls-2" cx="82.95" cy="93.83" r="3.2"/><circle class="cls-2" cx="90.12" cy="93.83" r="3.12"/><circle class="cls-2" cx="97.3" cy="93.83" r="3.05"/><circle class="cls-2" cx="104.48" cy="93.83" r="2.98"/><circle class="cls-2" cx="111.65" cy="93.83" r="2.9"/><circle class="cls-2" cx="118.83" cy="93.83" r="2.83"/><circle class="cls-2" cx="126.01" cy="93.83" r="2.76"/><circle class="cls-2" cx="133.18" cy="93.83" r="2.68"/><circle class="cls-2" cx="140.36" cy="93.83" r="2.61"/><circle class="cls-2" cx="147.54" cy="93.83" r="2.54"/><circle class="cls-2" cx="154.71" cy="93.83" r="2.46"/><circle class="cls-2" cx="161.89" cy="93.83" r="2.39"/><circle class="cls-2" cx="169.07" cy="93.83" r="2.32"/><circle class="cls-2" cx="176.24" cy="93.83" r="2.24"/><circle class="cls-2" cx="183.42" cy="93.83" r="2.17"/><circle class="cls-2" cx="190.6" cy="93.83" r="2.1"/><circle class="cls-2" cx="197.77" cy="93.83" r="2.02"/><circle class="cls-2" cx="204.95" cy="93.83" r="1.95"/><circle class="cls-2" cx="212.13" cy="93.83" r="1.88"/><circle class="cls-2" cx="219.3" cy="93.83" r="1.8"/><circle class="cls-2" cx="226.48" cy="93.83" r="1.73"/><circle class="cls-2" cx="233.66" cy="93.83" r="1.66"/><circle class="cls-2" cx="240.84" cy="93.83" r="1.59"/><circle class="cls-2" cx="248.01" cy="93.83" r="1.51"/><circle class="cls-2" cx="255.19" cy="93.83" r="1.44"/><circle class="cls-2" cx="262.37" cy="93.83" r="1.37"/><circle class="cls-2" cx="269.54" cy="93.83" r="1.29"/><circle class="cls-2" cx="276.72" cy="93.83" r="1.22"/><circle class="cls-2" cx="283.9" cy="93.83" r="1.15"/><circle class="cls-2" cx="291.07" cy="93.83" r="1.07"/><circle class="cls-2" cx="298.25" cy="93.83" r="1"/><circle class="cls-2" cx="4" cy="102" r="4"/><circle class="cls-2" cx="11.18" cy="102" r="3.93"/><circle class="cls-2" cx="18.35" cy="102" r="3.85"/><circle class="cls-2" cx="25.53" cy="102" r="3.78"/><circle class="cls-2" cx="32.71" cy="102" r="3.71"/><circle class="cls-2" cx="39.88" cy="102" r="3.63"/><circle class="cls-2" cx="47.06" cy="102" r="3.56"/><circle class="cls-2" cx="54.24" cy="102" r="3.49"/><circle class="cls-2" cx="61.41" cy="102" r="3.41"/><circle class="cls-2" cx="68.59" cy="102" r="3.34"/><circle class="cls-2" cx="75.77" cy="102" r="3.27"/><circle class="cls-2" cx="82.95" cy="102" r="3.2"/><circle class="cls-2" cx="90.12" cy="102" r="3.12"/><circle class="cls-2" cx="97.3" cy="102" r="3.05"/><circle class="cls-2" cx="104.48" cy="102" r="2.98"/><circle class="cls-2" cx="111.65" cy="102" r="2.9"/><circle class="cls-2" cx="118.83" cy="102" r="2.83"/><circle class="cls-2" cx="126.01" cy="102" r="2.76"/><circle class="cls-2" cx="133.18" cy="102" r="2.68"/><circle class="cls-2" cx="140.36" cy="102" r="2.61"/><circle class="cls-2" cx="147.54" cy="102" r="2.54"/><circle class="cls-2" cx="154.71" cy="102" r="2.46"/><circle class="cls-2" cx="161.89" cy="102" r="2.39"/><circle class="cls-2" cx="169.07" cy="102" r="2.32"/><circle class="cls-2" cx="176.24" cy="102" r="2.24"/><circle class="cls-2" cx="183.42" cy="102" r="2.17"/><circle class="cls-2" cx="190.6" cy="102" r="2.1"/><circle class="cls-2" cx="197.77" cy="102" r="2.02"/><circle class="cls-2" cx="204.95" cy="102" r="1.95"/><circle class="cls-2" cx="212.13" cy="102" r="1.88"/><circle class="cls-2" cx="219.3" cy="102" r="1.8"/><circle class="cls-2" cx="226.48" cy="102" r="1.73"/><circle class="cls-2" cx="233.66" cy="102" r="1.66"/><circle class="cls-2" cx="240.84" cy="102" r="1.59"/><circle class="cls-2" cx="248.01" cy="102" r="1.51"/><circle class="cls-2" cx="255.19" cy="102" r="1.44"/><circle class="cls-2" cx="262.37" cy="102" r="1.37"/><circle class="cls-2" cx="269.54" cy="102" r="1.29"/><circle class="cls-2" cx="276.72" cy="102" r="1.22"/><circle class="cls-2" cx="283.9" cy="102" r="1.15"/><circle class="cls-2" cx="291.07" cy="102" r="1.07"/><circle class="cls-2" cx="298.25" cy="102" r="1"/><circle class="cls-2" cx="4" cy="110.17" r="4"/><circle class="cls-2" cx="11.18" cy="110.17" r="3.93"/><circle class="cls-2" cx="18.35" cy="110.17" r="3.85"/><circle class="cls-2" cx="25.53" cy="110.17" r="3.78"/><circle class="cls-2" cx="32.71" cy="110.17" r="3.71"/><circle class="cls-2" cx="39.88" cy="110.17" r="3.63"/><circle class="cls-2" cx="47.06" cy="110.17" r="3.56"/><circle class="cls-2" cx="54.24" cy="110.17" r="3.49"/><circle class="cls-2" cx="61.41" cy="110.17" r="3.41"/><circle class="cls-2" cx="68.59" cy="110.17" r="3.34"/><circle class="cls-2" cx="75.77" cy="110.17" r="3.27"/><circle class="cls-2" cx="82.95" cy="110.17" r="3.2"/><circle class="cls-2" cx="90.12" cy="110.17" r="3.12"/><circle class="cls-2" cx="97.3" cy="110.17" r="3.05"/><circle class="cls-2" cx="104.48" cy="110.17" r="2.98"/><circle class="cls-2" cx="111.65" cy="110.17" r="2.9"/><circle class="cls-2" cx="118.83" cy="110.17" r="2.83"/><circle class="cls-2" cx="126.01" cy="110.17" r="2.76"/><circle class="cls-2" cx="133.18" cy="110.17" r="2.68"/><circle class="cls-2" cx="140.36" cy="110.17" r="2.61"/><circle class="cls-2" cx="147.54" cy="110.17" r="2.54"/><circle class="cls-2" cx="154.71" cy="110.17" r="2.46"/><circle class="cls-2" cx="161.89" cy="110.17" r="2.39"/><circle class="cls-2" cx="169.07" cy="110.17" r="2.32"/><circle class="cls-2" cx="176.24" cy="110.17" r="2.24"/><circle class="cls-2" cx="183.42" cy="110.17" r="2.17"/><circle class="cls-2" cx="190.6" cy="110.17" r="2.1"/><circle class="cls-2" cx="197.77" cy="110.17" r="2.02"/><circle class="cls-2" cx="204.95" cy="110.17" r="1.95"/><circle class="cls-2" cx="212.13" cy="110.17" r="1.88"/><circle class="cls-2" cx="219.3" cy="110.17" r="1.8"/><circle class="cls-2" cx="226.48" cy="110.17" r="1.73"/><circle class="cls-2" cx="233.66" cy="110.17" r="1.66"/><circle class="cls-2" cx="240.84" cy="110.17" r="1.59"/><circle class="cls-2" cx="248.01" cy="110.17" r="1.51"/><circle class="cls-2" cx="255.19" cy="110.17" r="1.44"/><circle class="cls-2" cx="262.37" cy="110.17" r="1.37"/><circle class="cls-2" cx="269.54" cy="110.17" r="1.29"/><circle class="cls-2" cx="276.72" cy="110.17" r="1.22"/><circle class="cls-2" cx="283.9" cy="110.17" r="1.15"/><circle class="cls-2" cx="291.07" cy="110.17" r="1.07"/><circle class="cls-2" cx="298.25" cy="110.17" r="1"/><circle class="cls-2" cx="4" cy="118.33" r="4"/><circle class="cls-2" cx="11.18" cy="118.33" r="3.93"/><circle class="cls-2" cx="18.35" cy="118.33" r="3.85"/><circle class="cls-2" cx="25.53" cy="118.33" r="3.78"/><circle class="cls-2" cx="32.71" cy="118.33" r="3.71"/><circle class="cls-2" cx="39.88" cy="118.33" r="3.63"/><circle class="cls-2" cx="47.06" cy="118.33" r="3.56"/><circle class="cls-2" cx="54.24" cy="118.33" r="3.49"/><circle class="cls-2" cx="61.41" cy="118.33" r="3.41"/><circle class="cls-2" cx="68.59" cy="118.33" r="3.34"/><circle class="cls-2" cx="75.77" cy="118.33" r="3.27"/><circle class="cls-2" cx="82.95" cy="118.33" r="3.2"/><circle class="cls-2" cx="90.12" cy="118.33" r="3.12"/><circle class="cls-2" cx="97.3" cy="118.33" r="3.05"/><circle class="cls-2" cx="104.48" cy="118.33" r="2.98"/><circle class="cls-2" cx="111.65" cy="118.33" r="2.9"/><circle class="cls-2" cx="118.83" cy="118.33" r="2.83"/><circle class="cls-2" cx="126.01" cy="118.33" r="2.76"/><circle class="cls-2" cx="133.18" cy="118.33" r="2.68"/><circle class="cls-2" cx="140.36" cy="118.33" r="2.61"/><circle class="cls-2" cx="147.54" cy="118.33" r="2.54"/><circle class="cls-2" cx="154.71" cy="118.33" r="2.46"/><circle class="cls-2" cx="161.89" cy="118.33" r="2.39"/><circle class="cls-2" cx="169.07" cy="118.33" r="2.32"/><circle class="cls-2" cx="176.24" cy="118.33" r="2.24"/><circle class="cls-2" cx="183.42" cy="118.33" r="2.17"/><circle class="cls-2" cx="190.6" cy="118.33" r="2.1"/><circle class="cls-2" cx="197.77" cy="118.33" r="2.02"/><circle class="cls-2" cx="204.95" cy="118.33" r="1.95"/><circle class="cls-2" cx="212.13" cy="118.33" r="1.88"/><circle class="cls-2" cx="219.3" cy="118.33" r="1.8"/><circle class="cls-2" cx="226.48" cy="118.33" r="1.73"/><circle class="cls-2" cx="233.66" cy="118.33" r="1.66"/><circle class="cls-2" cx="240.84" cy="118.33" r="1.59"/><circle class="cls-2" cx="248.01" cy="118.33" r="1.51"/><circle class="cls-2" cx="255.19" cy="118.33" r="1.44"/><circle class="cls-2" cx="262.37" cy="118.33" r="1.37"/><circle class="cls-2" cx="269.54" cy="118.33" r="1.29"/><circle class="cls-2" cx="276.72" cy="118.33" r="1.22"/><circle class="cls-2" cx="283.9" cy="118.33" r="1.15"/><circle class="cls-2" cx="291.07" cy="118.33" r="1.07"/><circle class="cls-2" cx="298.25" cy="118.33" r="1"/><circle class="cls-2" cx="4" cy="126.5" r="4"/><circle class="cls-2" cx="11.18" cy="126.5" r="3.93"/><circle class="cls-2" cx="18.35" cy="126.5" r="3.85"/><circle class="cls-2" cx="25.53" cy="126.5" r="3.78"/><circle class="cls-2" cx="32.71" cy="126.5" r="3.71"/><circle class="cls-2" cx="39.88" cy="126.5" r="3.63"/><circle class="cls-2" cx="47.06" cy="126.5" r="3.56"/><circle class="cls-2" cx="54.24" cy="126.5" r="3.49"/><circle class="cls-2" cx="61.41" cy="126.5" r="3.41"/><circle class="cls-2" cx="68.59" cy="126.5" r="3.34"/><circle class="cls-2" cx="75.77" cy="126.5" r="3.27"/><circle class="cls-2" cx="82.95" cy="126.5" r="3.2"/><circle class="cls-2" cx="90.12" cy="126.5" r="3.12"/><circle class="cls-2" cx="97.3" cy="126.5" r="3.05"/><circle class="cls-2" cx="104.48" cy="126.5" r="2.98"/><circle class="cls-2" cx="111.65" cy="126.5" r="2.9"/><circle class="cls-2" cx="118.83" cy="126.5" r="2.83"/><circle class="cls-2" cx="126.01" cy="126.5" r="2.76"/><circle class="cls-2" cx="133.18" cy="126.5" r="2.68"/><circle class="cls-2" cx="140.36" cy="126.5" r="2.61"/><circle class="cls-2" cx="147.54" cy="126.5" r="2.54"/><circle class="cls-2" cx="154.71" cy="126.5" r="2.46"/><circle class="cls-2" cx="161.89" cy="126.5" r="2.39"/><circle class="cls-2" cx="169.07" cy="126.5" r="2.32"/><circle class="cls-2" cx="176.24" cy="126.5" r="2.24"/><circle class="cls-2" cx="183.42" cy="126.5" r="2.17"/><circle class="cls-2" cx="190.6" cy="126.5" r="2.1"/><circle class="cls-2" cx="197.77" cy="126.5" r="2.02"/><circle class="cls-2" cx="204.95" cy="126.5" r="1.95"/><circle class="cls-2" cx="212.13" cy="126.5" r="1.88"/><circle class="cls-2" cx="219.3" cy="126.5" r="1.8"/><circle class="cls-2" cx="226.48" cy="126.5" r="1.73"/><circle class="cls-2" cx="233.66" cy="126.5" r="1.66"/><circle class="cls-2" cx="240.84" cy="126.5" r="1.59"/><circle class="cls-2" cx="248.01" cy="126.5" r="1.51"/><circle class="cls-2" cx="255.19" cy="126.5" r="1.44"/><circle class="cls-2" cx="262.37" cy="126.5" r="1.37"/><circle class="cls-2" cx="269.54" cy="126.5" r="1.29"/><circle class="cls-2" cx="276.72" cy="126.5" r="1.22"/><circle class="cls-2" cx="283.9" cy="126.5" r="1.15"/><circle class="cls-2" cx="291.07" cy="126.5" r="1.07"/><circle class="cls-2" cx="298.25" cy="126.5" r="1"/><circle class="cls-2" cx="4" cy="134.67" r="4"/><circle class="cls-2" cx="11.18" cy="134.67" r="3.93"/><circle class="cls-2" cx="18.35" cy="134.67" r="3.85"/><circle class="cls-2" cx="25.53" cy="134.67" r="3.78"/><circle class="cls-2" cx="32.71" cy="134.67" r="3.71"/><circle class="cls-2" cx="39.88" cy="134.67" r="3.63"/><circle class="cls-2" cx="47.06" cy="134.67" r="3.56"/><circle class="cls-2" cx="54.24" cy="134.67" r="3.49"/><circle class="cls-2" cx="61.41" cy="134.67" r="3.41"/><circle class="cls-2" cx="68.59" cy="134.67" r="3.34"/><circle class="cls-2" cx="75.77" cy="134.67" r="3.27"/><circle class="cls-2" cx="82.95" cy="134.67" r="3.2"/><circle class="cls-2" cx="90.12" cy="134.67" r="3.12"/><circle class="cls-2" cx="97.3" cy="134.67" r="3.05"/><circle class="cls-2" cx="104.48" cy="134.67" r="2.98"/><circle class="cls-2" cx="111.65" cy="134.67" r="2.9"/><circle class="cls-2" cx="118.83" cy="134.67" r="2.83"/><circle class="cls-2" cx="126.01" cy="134.67" r="2.76"/><circle class="cls-2" cx="133.18" cy="134.67" r="2.68"/><circle class="cls-2" cx="140.36" cy="134.67" r="2.61"/><circle class="cls-2" cx="147.54" cy="134.67" r="2.54"/><circle class="cls-2" cx="154.71" cy="134.67" r="2.46"/><circle class="cls-2" cx="161.89" cy="134.67" r="2.39"/><circle class="cls-2" cx="169.07" cy="134.67" r="2.32"/><circle class="cls-2" cx="176.24" cy="134.67" r="2.24"/><circle class="cls-2" cx="183.42" cy="134.67" r="2.17"/><circle class="cls-2" cx="190.6" cy="134.67" r="2.1"/><circle class="cls-2" cx="197.77" cy="134.67" r="2.02"/><circle class="cls-2" cx="204.95" cy="134.67" r="1.95"/><circle class="cls-2" cx="212.13" cy="134.67" r="1.88"/><circle class="cls-2" cx="219.3" cy="134.67" r="1.8"/><circle class="cls-2" cx="226.48" cy="134.67" r="1.73"/><circle class="cls-2" cx="233.66" cy="134.67" r="1.66"/><circle class="cls-2" cx="240.84" cy="134.67" r="1.59"/><circle class="cls-2" cx="248.01" cy="134.67" r="1.51"/><circle class="cls-2" cx="255.19" cy="134.67" r="1.44"/><circle class="cls-2" cx="262.37" cy="134.67" r="1.37"/><circle class="cls-2" cx="269.54" cy="134.67" r="1.29"/><circle class="cls-2" cx="276.72" cy="134.67" r="1.22"/><circle class="cls-2" cx="283.9" cy="134.67" r="1.15"/><circle class="cls-2" cx="291.07" cy="134.67" r="1.07"/><circle class="cls-2" cx="298.25" cy="134.67" r="1"/><circle class="cls-2" cx="4" cy="142.83" r="4"/><circle class="cls-2" cx="11.18" cy="142.83" r="3.93"/><circle class="cls-2" cx="18.35" cy="142.83" r="3.85"/><circle class="cls-2" cx="25.53" cy="142.83" r="3.78"/><circle class="cls-2" cx="32.71" cy="142.83" r="3.71"/><circle class="cls-2" cx="39.88" cy="142.83" r="3.63"/><circle class="cls-2" cx="47.06" cy="142.83" r="3.56"/><circle class="cls-2" cx="54.24" cy="142.83" r="3.49"/><circle class="cls-2" cx="61.41" cy="142.83" r="3.41"/><circle class="cls-2" cx="68.59" cy="142.83" r="3.34"/><circle class="cls-2" cx="75.77" cy="142.83" r="3.27"/><circle class="cls-2" cx="82.95" cy="142.83" r="3.2"/><circle class="cls-2" cx="90.12" cy="142.83" r="3.12"/><circle class="cls-2" cx="97.3" cy="142.83" r="3.05"/><circle class="cls-2" cx="104.48" cy="142.83" r="2.98"/><circle class="cls-2" cx="111.65" cy="142.83" r="2.9"/><circle class="cls-2" cx="118.83" cy="142.83" r="2.83"/><circle class="cls-2" cx="126.01" cy="142.83" r="2.76"/><circle class="cls-2" cx="133.18" cy="142.83" r="2.68"/><circle class="cls-2" cx="140.36" cy="142.83" r="2.61"/><circle class="cls-2" cx="147.54" cy="142.83" r="2.54"/><circle class="cls-2" cx="154.71" cy="142.83" r="2.46"/><circle class="cls-2" cx="161.89" cy="142.83" r="2.39"/><circle class="cls-2" cx="169.07" cy="142.83" r="2.32"/><circle class="cls-2" cx="176.24" cy="142.83" r="2.24"/><circle class="cls-2" cx="183.42" cy="142.83" r="2.17"/><circle class="cls-2" cx="190.6" cy="142.83" r="2.1"/><circle class="cls-2" cx="197.77" cy="142.83" r="2.02"/><circle class="cls-2" cx="204.95" cy="142.83" r="1.95"/><circle class="cls-2" cx="212.13" cy="142.83" r="1.88"/><circle class="cls-2" cx="219.3" cy="142.83" r="1.8"/><circle class="cls-2" cx="226.48" cy="142.83" r="1.73"/><circle class="cls-2" cx="233.66" cy="142.83" r="1.66"/><circle class="cls-2" cx="240.84" cy="142.83" r="1.59"/><circle class="cls-2" cx="248.01" cy="142.83" r="1.51"/><circle class="cls-2" cx="255.19" cy="142.83" r="1.44"/><circle class="cls-2" cx="262.37" cy="142.83" r="1.37"/><circle class="cls-2" cx="269.54" cy="142.83" r="1.29"/><circle class="cls-2" cx="276.72" cy="142.83" r="1.22"/><circle class="cls-2" cx="283.9" cy="142.83" r="1.15"/><circle class="cls-2" cx="291.07" cy="142.83" r="1.07"/><circle class="cls-2" cx="298.25" cy="142.83" r="1"/><circle class="cls-2" cx="4" cy="151" r="4"/><circle class="cls-2" cx="11.18" cy="151" r="3.93"/><circle class="cls-2" cx="18.35" cy="151" r="3.85"/><circle class="cls-2" cx="25.53" cy="151" r="3.78"/><circle class="cls-2" cx="32.71" cy="151" r="3.71"/><circle class="cls-2" cx="39.88" cy="151" r="3.63"/><circle class="cls-2" cx="47.06" cy="151" r="3.56"/><circle class="cls-2" cx="54.24" cy="151" r="3.49"/><circle class="cls-2" cx="61.41" cy="151" r="3.41"/><circle class="cls-2" cx="68.59" cy="151" r="3.34"/><circle class="cls-2" cx="75.77" cy="151" r="3.27"/><circle class="cls-2" cx="82.95" cy="151" r="3.2"/><circle class="cls-2" cx="90.12" cy="151" r="3.12"/><circle class="cls-2" cx="97.3" cy="151" r="3.05"/><circle class="cls-2" cx="104.48" cy="151" r="2.98"/><circle class="cls-2" cx="111.65" cy="151" r="2.9"/><circle class="cls-2" cx="118.83" cy="151" r="2.83"/><circle class="cls-2" cx="126.01" cy="151" r="2.76"/><circle class="cls-2" cx="133.18" cy="151" r="2.68"/><circle class="cls-2" cx="140.36" cy="151" r="2.61"/><circle class="cls-2" cx="147.54" cy="151" r="2.54"/><circle class="cls-2" cx="154.71" cy="151" r="2.46"/><circle class="cls-2" cx="161.89" cy="151" r="2.39"/><circle class="cls-2" cx="169.07" cy="151" r="2.32"/><circle class="cls-2" cx="176.24" cy="151" r="2.24"/><circle class="cls-2" cx="183.42" cy="151" r="2.17"/><circle class="cls-2" cx="190.6" cy="151" r="2.1"/><circle class="cls-2" cx="197.77" cy="151" r="2.02"/><circle class="cls-2" cx="204.95" cy="151" r="1.95"/><circle class="cls-2" cx="212.13" cy="151" r="1.88"/><circle class="cls-2" cx="219.3" cy="151" r="1.8"/><circle class="cls-2" cx="226.48" cy="151" r="1.73"/><circle class="cls-2" cx="233.66" cy="151" r="1.66"/><circle class="cls-2" cx="240.84" cy="151" r="1.59"/><circle class="cls-2" cx="248.01" cy="151" r="1.51"/><circle class="cls-2" cx="255.19" cy="151" r="1.44"/><circle class="cls-2" cx="262.37" cy="151" r="1.37"/><circle class="cls-2" cx="269.54" cy="151" r="1.29"/><circle class="cls-2" cx="276.72" cy="151" r="1.22"/><circle class="cls-2" cx="283.9" cy="151" r="1.15"/><circle class="cls-2" cx="291.07" cy="151" r="1.07"/><circle class="cls-2" cx="298.25" cy="151" r="1"/></svg>