<svg id="Layer_1" data-name="Layer 1" xmlns="http://www.w3.org/2000/svg" viewBox="0 0 300 155"><defs><style>.cls-1{fill:#006a96;}.cls-2{opacity:0.2;}.cls-3{fill:#3388ab;}</style></defs><title>OptB-About-state1</title><rect class="cls-1" width="300" height="155"/><g class="cls-2"><circle class="cls-3" cx="296" cy="4" r="4"/><circle class="cls-3" cx="288.82" cy="4" r="3.93"/><circle class="cls-3" cx="281.65" cy="4" r="3.85"/><circle class="cls-3" cx="274.47" cy="4" r="3.78"/><circle class="cls-3" cx="267.29" cy="4" r="3.71"/><circle class="cls-3" cx="260.12" cy="4" r="3.63"/><circle class="cls-3" cx="252.94" cy="4" r="3.56"/><circle class="cls-3" cx="245.76" cy="4" r="3.49"/><circle class="cls-3" cx="238.59" cy="4" r="3.41"/><circle class="cls-3" cx="231.41" cy="4" r="3.34"/><circle class="cls-3" cx="224.23" cy="4" r="3.27"/><circle class="cls-3" cx="217.05" cy="4" r="3.2"/><circle class="cls-3" cx="209.88" cy="4" r="3.12"/><circle class="cls-3" cx="202.7" cy="4" r="3.05"/><circle class="cls-3" cx="195.52" cy="4" r="2.98"/><circle class="cls-3" cx="188.35" cy="4" r="2.9"/><circle class="cls-3" cx="181.17" cy="4" r="2.83"/><circle class="cls-3" cx="173.99" cy="4" r="2.76"/><circle class="cls-3" cx="166.82" cy="4" r="2.68"/><circle class="cls-3" cx="159.64" cy="4" r="2.61"/><circle class="cls-3" cx="152.46" cy="4" r="2.54"/><circle class="cls-3" cx="145.29" cy="4" r="2.46"/><circle class="cls-3" cx="138.11" cy="4" r="2.39"/><circle class="cls-3" cx="130.93" cy="4" r="2.32"/><circle class="cls-3" cx="123.76" cy="4" r="2.24"/><circle class="cls-3" cx="116.58" cy="4" r="2.17"/><circle class="cls-3" cx="109.4" cy="4" r="2.1"/><circle class="cls-3" cx="102.23" cy="4" r="2.02"/><circle class="cls-3" cx="95.05" cy="4" r="1.95"/><circle class="cls-3" cx="87.87" cy="4" r="1.88"/><circle class="cls-3" cx="80.7" cy="4" r="1.8"/><circle class="cls-3" cx="73.52" cy="4" r="1.73"/><circle class="cls-3" cx="66.34" cy="4" r="1.66"/><circle class="cls-3" cx="59.16" cy="4" r="1.59"/><circle class="cls-3" cx="51.99" cy="4" r="1.51"/><circle class="cls-3" cx="44.81" cy="4" r="1.44"/><circle class="cls-3" cx="37.63" cy="4" r="1.37"/><circle class="cls-3" cx="30.46" cy="4" r="1.29"/><circle class="cls-3" cx="23.28" cy="4" r="1.22"/><circle class="cls-3" cx="16.1" cy="4" r="1.15"/><circle class="cls-3" cx="8.93" cy="4" r="1.07"/><circle class="cls-3" cx="1.75" cy="4" r="1"/></g><g class="cls-2"><circle class="cls-3" cx="296" cy="12.17" r="4"/><circle class="cls-3" cx="288.82" cy="12.17" r="3.93"/><circle class="cls-3" cx="281.65" cy="12.17" r="3.85"/><circle class="cls-3" cx="274.47" cy="12.17" r="3.78"/><circle class="cls-3" cx="267.29" cy="12.17" r="3.71"/><circle class="cls-3" cx="260.12" cy="12.17" r="3.63"/><circle class="cls-3" cx="252.94" cy="12.17" r="3.56"/><circle class="cls-3" cx="245.76" cy="12.17" r="3.49"/><circle class="cls-3" cx="238.59" cy="12.17" r="3.41"/><circle class="cls-3" cx="231.41" cy="12.17" r="3.34"/><circle class="cls-3" cx="224.23" cy="12.17" r="3.27"/><circle class="cls-3" cx="217.05" cy="12.17" r="3.2"/><circle class="cls-3" cx="209.88" cy="12.17" r="3.12"/><circle class="cls-3" cx="202.7" cy="12.17" r="3.05"/><circle class="cls-3" cx="195.52" cy="12.17" r="2.98"/><circle class="cls-3" cx="188.35" cy="12.17" r="2.9"/><circle class="cls-3" cx="181.17" cy="12.17" r="2.83"/><circle class="cls-3" cx="173.99" cy="12.17" r="2.76"/><circle class="cls-3" cx="166.82" cy="12.17" r="2.68"/><circle class="cls-3" cx="159.64" cy="12.17" r="2.61"/><circle class="cls-3" cx="152.46" cy="12.17" r="2.54"/><circle class="cls-3" cx="145.29" cy="12.17" r="2.46"/><circle class="cls-3" cx="138.11" cy="12.17" r="2.39"/><circle class="cls-3" cx="130.93" cy="12.17" r="2.32"/><circle class="cls-3" cx="123.76" cy="12.17" r="2.24"/><circle class="cls-3" cx="116.58" cy="12.17" r="2.17"/><circle class="cls-3" cx="109.4" cy="12.17" r="2.1"/><circle class="cls-3" cx="102.23" cy="12.17" r="2.02"/><circle class="cls-3" cx="95.05" cy="12.17" r="1.95"/><circle class="cls-3" cx="87.87" cy="12.17" r="1.88"/><circle class="cls-3" cx="80.7" cy="12.17" r="1.8"/><circle class="cls-3" cx="73.52" cy="12.17" r="1.73"/><circle class="cls-3" cx="66.34" cy="12.17" r="1.66"/><circle class="cls-3" cx="59.16" cy="12.17" r="1.59"/><circle class="cls-3" cx="51.99" cy="12.17" r="1.51"/><circle class="cls-3" cx="44.81" cy="12.17" r="1.44"/><circle class="cls-3" cx="37.63" cy="12.17" r="1.37"/><circle class="cls-3" cx="30.46" cy="12.17" r="1.29"/><circle class="cls-3" cx="23.28" cy="12.17" r="1.22"/><circle class="cls-3" cx="16.1" cy="12.17" r="1.15"/><circle class="cls-3" cx="8.93" cy="12.17" r="1.07"/><circle class="cls-3" cx="1.75" cy="12.17" r="1"/></g><g class="cls-2"><circle class="cls-3" cx="296" cy="20.33" r="4"/><circle class="cls-3" cx="288.82" cy="20.33" r="3.93"/><circle class="cls-3" cx="281.65" cy="20.33" r="3.85"/><circle class="cls-3" cx="274.47" cy="20.33" r="3.78"/><circle class="cls-3" cx="267.29" cy="20.33" r="3.71"/><circle class="cls-3" cx="260.12" cy="20.33" r="3.63"/><circle class="cls-3" cx="252.94" cy="20.33" r="3.56"/><circle class="cls-3" cx="245.76" cy="20.33" r="3.49"/><circle class="cls-3" cx="238.59" cy="20.33" r="3.41"/><circle class="cls-3" cx="231.41" cy="20.33" r="3.34"/><circle class="cls-3" cx="224.23" cy="20.33" r="3.27"/><circle class="cls-3" cx="217.05" cy="20.33" r="3.2"/><circle class="cls-3" cx="209.88" cy="20.33" r="3.12"/><circle class="cls-3" cx="202.7" cy="20.33" r="3.05"/><circle class="cls-3" cx="195.52" cy="20.33" r="2.98"/><circle class="cls-3" cx="188.35" cy="20.33" r="2.9"/><circle class="cls-3" cx="181.17" cy="20.33" r="2.83"/><circle class="cls-3" cx="173.99" cy="20.33" r="2.76"/><circle class="cls-3" cx="166.82" cy="20.33" r="2.68"/><circle class="cls-3" cx="159.64" cy="20.33" r="2.61"/><circle class="cls-3" cx="152.46" cy="20.33" r="2.54"/><circle class="cls-3" cx="145.29" cy="20.33" r="2.46"/><circle class="cls-3" cx="138.11" cy="20.33" r="2.39"/><circle class="cls-3" cx="130.93" cy="20.33" r="2.32"/><circle class="cls-3" cx="123.76" cy="20.33" r="2.24"/><circle class="cls-3" cx="116.58" cy="20.33" r="2.17"/><circle class="cls-3" cx="109.4" cy="20.33" r="2.1"/><circle class="cls-3" cx="102.23" cy="20.33" r="2.02"/><circle class="cls-3" cx="95.05" cy="20.33" r="1.95"/><circle class="cls-3" cx="87.87" cy="20.33" r="1.88"/><circle class="cls-3" cx="80.7" cy="20.33" r="1.8"/><circle class="cls-3" cx="73.52" cy="20.33" r="1.73"/><circle class="cls-3" cx="66.34" cy="20.33" r="1.66"/><circle class="cls-3" cx="59.16" cy="20.33" r="1.59"/><circle class="cls-3" cx="51.99" cy="20.33" r="1.51"/><circle class="cls-3" cx="44.81" cy="20.33" r="1.44"/><circle class="cls-3" cx="37.63" cy="20.33" r="1.37"/><circle class="cls-3" cx="30.46" cy="20.33" r="1.29"/><circle class="cls-3" cx="23.28" cy="20.33" r="1.22"/><circle class="cls-3" cx="16.1" cy="20.33" r="1.15"/><circle class="cls-3" cx="8.93" cy="20.33" r="1.07"/><circle class="cls-3" cx="1.75" cy="20.33" r="1"/></g><g class="cls-2"><circle class="cls-3" cx="296" cy="28.5" r="4"/><circle class="cls-3" cx="288.82" cy="28.5" r="3.93"/><circle class="cls-3" cx="281.65" cy="28.5" r="3.85"/><circle class="cls-3" cx="274.47" cy="28.5" r="3.78"/><circle class="cls-3" cx="267.29" cy="28.5" r="3.71"/><circle class="cls-3" cx="260.12" cy="28.5" r="3.63"/><circle class="cls-3" cx="252.94" cy="28.5" r="3.56"/><circle class="cls-3" cx="245.76" cy="28.5" r="3.49"/><circle class="cls-3" cx="238.59" cy="28.5" r="3.41"/><circle class="cls-3" cx="231.41" cy="28.5" r="3.34"/><circle class="cls-3" cx="224.23" cy="28.5" r="3.27"/><circle class="cls-3" cx="217.05" cy="28.5" r="3.2"/><circle class="cls-3" cx="209.88" cy="28.5" r="3.12"/><circle class="cls-3" cx="202.7" cy="28.5" r="3.05"/><circle class="cls-3" cx="195.52" cy="28.5" r="2.98"/><circle class="cls-3" cx="188.35" cy="28.5" r="2.9"/><circle class="cls-3" cx="181.17" cy="28.5" r="2.83"/><circle class="cls-3" cx="173.99" cy="28.5" r="2.76"/><circle class="cls-3" cx="166.82" cy="28.5" r="2.68"/><circle class="cls-3" cx="159.64" cy="28.5" r="2.61"/><circle class="cls-3" cx="152.46" cy="28.5" r="2.54"/><circle class="cls-3" cx="145.29" cy="28.5" r="2.46"/><circle class="cls-3" cx="138.11" cy="28.5" r="2.39"/><circle class="cls-3" cx="130.93" cy="28.5" r="2.32"/><circle class="cls-3" cx="123.76" cy="28.5" r="2.24"/><circle class="cls-3" cx="116.58" cy="28.5" r="2.17"/><circle class="cls-3" cx="109.4" cy="28.5" r="2.1"/><circle class="cls-3" cx="102.23" cy="28.5" r="2.02"/><circle class="cls-3" cx="95.05" cy="28.5" r="1.95"/><circle class="cls-3" cx="87.87" cy="28.5" r="1.88"/><circle class="cls-3" cx="80.7" cy="28.5" r="1.8"/><circle class="cls-3" cx="73.52" cy="28.5" r="1.73"/><circle class="cls-3" cx="66.34" cy="28.5" r="1.66"/><circle class="cls-3" cx="59.16" cy="28.5" r="1.59"/><circle class="cls-3" cx="51.99" cy="28.5" r="1.51"/><circle class="cls-3" cx="44.81" cy="28.5" r="1.44"/><circle class="cls-3" cx="37.63" cy="28.5" r="1.37"/><circle class="cls-3" cx="30.46" cy="28.5" r="1.29"/><circle class="cls-3" cx="23.28" cy="28.5" r="1.22"/><circle class="cls-3" cx="16.1" cy="28.5" r="1.15"/><circle class="cls-3" cx="8.93" cy="28.5" r="1.07"/><circle class="cls-3" cx="1.75" cy="28.5" r="1"/></g><g class="cls-2"><circle class="cls-3" cx="296" cy="36.67" r="4"/><circle class="cls-3" cx="288.82" cy="36.67" r="3.93"/><circle class="cls-3" cx="281.65" cy="36.67" r="3.85"/><circle class="cls-3" cx="274.47" cy="36.67" r="3.78"/><circle class="cls-3" cx="267.29" cy="36.67" r="3.71"/><circle class="cls-3" cx="260.12" cy="36.67" r="3.63"/><circle class="cls-3" cx="252.94" cy="36.67" r="3.56"/><circle class="cls-3" cx="245.76" cy="36.67" r="3.49"/><circle class="cls-3" cx="238.59" cy="36.67" r="3.41"/><circle class="cls-3" cx="231.41" cy="36.67" r="3.34"/><circle class="cls-3" cx="224.23" cy="36.67" r="3.27"/><circle class="cls-3" cx="217.05" cy="36.67" r="3.2"/><circle class="cls-3" cx="209.88" cy="36.67" r="3.12"/><circle class="cls-3" cx="202.7" cy="36.67" r="3.05"/><circle class="cls-3" cx="195.52" cy="36.67" r="2.98"/><circle class="cls-3" cx="188.35" cy="36.67" r="2.9"/><circle class="cls-3" cx="181.17" cy="36.67" r="2.83"/><circle class="cls-3" cx="173.99" cy="36.67" r="2.76"/><circle class="cls-3" cx="166.82" cy="36.67" r="2.68"/><circle class="cls-3" cx="159.64" cy="36.67" r="2.61"/><circle class="cls-3" cx="152.46" cy="36.67" r="2.54"/><circle class="cls-3" cx="145.29" cy="36.67" r="2.46"/><circle class="cls-3" cx="138.11" cy="36.67" r="2.39"/><circle class="cls-3" cx="130.93" cy="36.67" r="2.32"/><circle class="cls-3" cx="123.76" cy="36.67" r="2.24"/><circle class="cls-3" cx="116.58" cy="36.67" r="2.17"/><circle class="cls-3" cx="109.4" cy="36.67" r="2.1"/><circle class="cls-3" cx="102.23" cy="36.67" r="2.02"/><circle class="cls-3" cx="95.05" cy="36.67" r="1.95"/><circle class="cls-3" cx="87.87" cy="36.67" r="1.88"/><circle class="cls-3" cx="80.7" cy="36.67" r="1.8"/><circle class="cls-3" cx="73.52" cy="36.67" r="1.73"/><circle class="cls-3" cx="66.34" cy="36.67" r="1.66"/><circle class="cls-3" cx="59.16" cy="36.67" r="1.59"/><circle class="cls-3" cx="51.99" cy="36.67" r="1.51"/><circle class="cls-3" cx="44.81" cy="36.67" r="1.44"/><circle class="cls-3" cx="37.63" cy="36.67" r="1.37"/><circle class="cls-3" cx="30.46" cy="36.67" r="1.29"/><circle class="cls-3" cx="23.28" cy="36.67" r="1.22"/><circle class="cls-3" cx="16.1" cy="36.67" r="1.15"/><circle class="cls-3" cx="8.93" cy="36.67" r="1.07"/><circle class="cls-3" cx="1.75" cy="36.67" r="1"/></g><g class="cls-2"><circle class="cls-3" cx="296" cy="44.83" r="4"/><circle class="cls-3" cx="288.82" cy="44.83" r="3.93"/><circle class="cls-3" cx="281.65" cy="44.83" r="3.85"/><circle class="cls-3" cx="274.47" cy="44.83" r="3.78"/><circle class="cls-3" cx="267.29" cy="44.83" r="3.71"/><circle class="cls-3" cx="260.12" cy="44.83" r="3.63"/><circle class="cls-3" cx="252.94" cy="44.83" r="3.56"/><circle class="cls-3" cx="245.76" cy="44.83" r="3.49"/><circle class="cls-3" cx="238.59" cy="44.83" r="3.41"/><circle class="cls-3" cx="231.41" cy="44.83" r="3.34"/><circle class="cls-3" cx="224.23" cy="44.83" r="3.27"/><circle class="cls-3" cx="217.05" cy="44.83" r="3.2"/><circle class="cls-3" cx="209.88" cy="44.83" r="3.12"/><circle class="cls-3" cx="202.7" cy="44.83" r="3.05"/><circle class="cls-3" cx="195.52" cy="44.83" r="2.98"/><circle class="cls-3" cx="188.35" cy="44.83" r="2.9"/><circle class="cls-3" cx="181.17" cy="44.83" r="2.83"/><circle class="cls-3" cx="173.99" cy="44.83" r="2.76"/><circle class="cls-3" cx="166.82" cy="44.83" r="2.68"/><circle class="cls-3" cx="159.64" cy="44.83" r="2.61"/><circle class="cls-3" cx="152.46" cy="44.83" r="2.54"/><circle class="cls-3" cx="145.29" cy="44.83" r="2.46"/><circle class="cls-3" cx="138.11" cy="44.83" r="2.39"/><circle class="cls-3" cx="130.93" cy="44.83" r="2.32"/><circle class="cls-3" cx="123.76" cy="44.83" r="2.24"/><circle class="cls-3" cx="116.58" cy="44.83" r="2.17"/><circle class="cls-3" cx="109.4" cy="44.83" r="2.1"/><circle class="cls-3" cx="102.23" cy="44.83" r="2.02"/><circle class="cls-3" cx="95.05" cy="44.83" r="1.95"/><circle class="cls-3" cx="87.87" cy="44.83" r="1.88"/><circle class="cls-3" cx="80.7" cy="44.83" r="1.8"/><circle class="cls-3" cx="73.52" cy="44.83" r="1.73"/><circle class="cls-3" cx="66.34" cy="44.83" r="1.66"/><circle class="cls-3" cx="59.16" cy="44.83" r="1.59"/><circle class="cls-3" cx="51.99" cy="44.83" r="1.51"/><circle class="cls-3" cx="44.81" cy="44.83" r="1.44"/><circle class="cls-3" cx="37.63" cy="44.83" r="1.37"/><circle class="cls-3" cx="30.46" cy="44.83" r="1.29"/><circle class="cls-3" cx="23.28" cy="44.83" r="1.22"/><circle class="cls-3" cx="16.1" cy="44.83" r="1.15"/><circle class="cls-3" cx="8.93" cy="44.83" r="1.07"/><circle class="cls-3" cx="1.75" cy="44.83" r="1"/></g><g class="cls-2"><circle class="cls-3" cx="296" cy="53" r="4"/><circle class="cls-3" cx="288.82" cy="53" r="3.93"/><circle class="cls-3" cx="281.65" cy="53" r="3.85"/><circle class="cls-3" cx="274.47" cy="53" r="3.78"/><circle class="cls-3" cx="267.29" cy="53" r="3.71"/><circle class="cls-3" cx="260.12" cy="53" r="3.63"/><circle class="cls-3" cx="252.94" cy="53" r="3.56"/><circle class="cls-3" cx="245.76" cy="53" r="3.49"/><circle class="cls-3" cx="238.59" cy="53" r="3.41"/><circle class="cls-3" cx="231.41" cy="53" r="3.34"/><circle class="cls-3" cx="224.23" cy="53" r="3.27"/><circle class="cls-3" cx="217.05" cy="53" r="3.2"/><circle class="cls-3" cx="209.88" cy="53" r="3.12"/><circle class="cls-3" cx="202.7" cy="53" r="3.05"/><circle class="cls-3" cx="195.52" cy="53" r="2.98"/><circle class="cls-3" cx="188.35" cy="53" r="2.9"/><circle class="cls-3" cx="181.17" cy="53" r="2.83"/><circle class="cls-3" cx="173.99" cy="53" r="2.76"/><circle class="cls-3" cx="166.82" cy="53" r="2.68"/><circle class="cls-3" cx="159.64" cy="53" r="2.61"/><circle class="cls-3" cx="152.46" cy="53" r="2.54"/><circle class="cls-3" cx="145.29" cy="53" r="2.46"/><circle class="cls-3" cx="138.11" cy="53" r="2.39"/><circle class="cls-3" cx="130.93" cy="53" r="2.32"/><circle class="cls-3" cx="123.76" cy="53" r="2.24"/><circle class="cls-3" cx="116.58" cy="53" r="2.17"/><circle class="cls-3" cx="109.4" cy="53" r="2.1"/><circle class="cls-3" cx="102.23" cy="53" r="2.02"/><circle class="cls-3" cx="95.05" cy="53" r="1.95"/><circle class="cls-3" cx="87.87" cy="53" r="1.88"/><circle class="cls-3" cx="80.7" cy="53" r="1.8"/><circle class="cls-3" cx="73.52" cy="53" r="1.73"/><circle class="cls-3" cx="66.34" cy="53" r="1.66"/><circle class="cls-3" cx="59.16" cy="53" r="1.59"/><circle class="cls-3" cx="51.99" cy="53" r="1.51"/><circle class="cls-3" cx="44.81" cy="53" r="1.44"/><circle class="cls-3" cx="37.63" cy="53" r="1.37"/><circle class="cls-3" cx="30.46" cy="53" r="1.29"/><circle class="cls-3" cx="23.28" cy="53" r="1.22"/><circle class="cls-3" cx="16.1" cy="53" r="1.15"/><circle class="cls-3" cx="8.93" cy="53" r="1.07"/><circle class="cls-3" cx="1.75" cy="53" r="1"/></g><g class="cls-2"><circle class="cls-3" cx="296" cy="61.17" r="4"/><circle class="cls-3" cx="288.82" cy="61.17" r="3.93"/><circle class="cls-3" cx="281.65" cy="61.17" r="3.85"/><circle class="cls-3" cx="274.47" cy="61.17" r="3.78"/><circle class="cls-3" cx="267.29" cy="61.17" r="3.71"/><circle class="cls-3" cx="260.12" cy="61.17" r="3.63"/><circle class="cls-3" cx="252.94" cy="61.17" r="3.56"/><circle class="cls-3" cx="245.76" cy="61.17" r="3.49"/><circle class="cls-3" cx="238.59" cy="61.17" r="3.41"/><circle class="cls-3" cx="231.41" cy="61.17" r="3.34"/><circle class="cls-3" cx="224.23" cy="61.17" r="3.27"/><circle class="cls-3" cx="217.05" cy="61.17" r="3.2"/><circle class="cls-3" cx="209.88" cy="61.17" r="3.12"/><circle class="cls-3" cx="202.7" cy="61.17" r="3.05"/><circle class="cls-3" cx="195.52" cy="61.17" r="2.98"/><circle class="cls-3" cx="188.35" cy="61.17" r="2.9"/><circle class="cls-3" cx="181.17" cy="61.17" r="2.83"/><circle class="cls-3" cx="173.99" cy="61.17" r="2.76"/><circle class="cls-3" cx="166.82" cy="61.17" r="2.68"/><circle class="cls-3" cx="159.64" cy="61.17" r="2.61"/><circle class="cls-3" cx="152.46" cy="61.17" r="2.54"/><circle class="cls-3" cx="145.29" cy="61.17" r="2.46"/><circle class="cls-3" cx="138.11" cy="61.17" r="2.39"/><circle class="cls-3" cx="130.93" cy="61.17" r="2.32"/><circle class="cls-3" cx="123.76" cy="61.17" r="2.24"/><circle class="cls-3" cx="116.58" cy="61.17" r="2.17"/><circle class="cls-3" cx="109.4" cy="61.17" r="2.1"/><circle class="cls-3" cx="102.23" cy="61.17" r="2.02"/><circle class="cls-3" cx="95.05" cy="61.17" r="1.95"/><circle class="cls-3" cx="87.87" cy="61.17" r="1.88"/><circle class="cls-3" cx="80.7" cy="61.17" r="1.8"/><circle class="cls-3" cx="73.52" cy="61.17" r="1.73"/><circle class="cls-3" cx="66.34" cy="61.17" r="1.66"/><circle class="cls-3" cx="59.16" cy="61.17" r="1.59"/><circle class="cls-3" cx="51.99" cy="61.17" r="1.51"/><circle class="cls-3" cx="44.81" cy="61.17" r="1.44"/><circle class="cls-3" cx="37.63" cy="61.17" r="1.37"/><circle class="cls-3" cx="30.46" cy="61.17" r="1.29"/><circle class="cls-3" cx="23.28" cy="61.17" r="1.22"/><circle class="cls-3" cx="16.1" cy="61.17" r="1.15"/><circle class="cls-3" cx="8.93" cy="61.17" r="1.07"/><circle class="cls-3" cx="1.75" cy="61.17" r="1"/></g><g class="cls-2"><circle class="cls-3" cx="296" cy="69.33" r="4"/><circle class="cls-3" cx="288.82" cy="69.33" r="3.93"/><circle class="cls-3" cx="281.65" cy="69.33" r="3.85"/><circle class="cls-3" cx="274.47" cy="69.33" r="3.78"/><circle class="cls-3" cx="267.29" cy="69.33" r="3.71"/><circle class="cls-3" cx="260.12" cy="69.33" r="3.63"/><circle class="cls-3" cx="252.94" cy="69.33" r="3.56"/><circle class="cls-3" cx="245.76" cy="69.33" r="3.49"/><circle class="cls-3" cx="238.59" cy="69.33" r="3.41"/><circle class="cls-3" cx="231.41" cy="69.33" r="3.34"/><circle class="cls-3" cx="224.23" cy="69.33" r="3.27"/><circle class="cls-3" cx="217.05" cy="69.33" r="3.2"/><circle class="cls-3" cx="209.88" cy="69.33" r="3.12"/><circle class="cls-3" cx="202.7" cy="69.33" r="3.05"/><circle class="cls-3" cx="195.52" cy="69.33" r="2.98"/><circle class="cls-3" cx="188.35" cy="69.33" r="2.9"/><circle class="cls-3" cx="181.17" cy="69.33" r="2.83"/><circle class="cls-3" cx="173.99" cy="69.33" r="2.76"/><circle class="cls-3" cx="166.82" cy="69.33" r="2.68"/><circle class="cls-3" cx="159.64" cy="69.33" r="2.61"/><circle class="cls-3" cx="152.46" cy="69.33" r="2.54"/><circle class="cls-3" cx="145.29" cy="69.33" r="2.46"/><circle class="cls-3" cx="138.11" cy="69.33" r="2.39"/><circle class="cls-3" cx="130.93" cy="69.33" r="2.32"/><circle class="cls-3" cx="123.76" cy="69.33" r="2.24"/><circle class="cls-3" cx="116.58" cy="69.33" r="2.17"/><circle class="cls-3" cx="109.4" cy="69.33" r="2.1"/><circle class="cls-3" cx="102.23" cy="69.33" r="2.02"/><circle class="cls-3" cx="95.05" cy="69.33" r="1.95"/><circle class="cls-3" cx="87.87" cy="69.33" r="1.88"/><circle class="cls-3" cx="80.7" cy="69.33" r="1.8"/><circle class="cls-3" cx="73.52" cy="69.33" r="1.73"/><circle class="cls-3" cx="66.34" cy="69.33" r="1.66"/><circle class="cls-3" cx="59.16" cy="69.33" r="1.59"/><circle class="cls-3" cx="51.99" cy="69.33" r="1.51"/><circle class="cls-3" cx="44.81" cy="69.33" r="1.44"/><circle class="cls-3" cx="37.63" cy="69.33" r="1.37"/><circle class="cls-3" cx="30.46" cy="69.33" r="1.29"/><circle class="cls-3" cx="23.28" cy="69.33" r="1.22"/><circle class="cls-3" cx="16.1" cy="69.33" r="1.15"/><circle class="cls-3" cx="8.93" cy="69.33" r="1.07"/><circle class="cls-3" cx="1.75" cy="69.33" r="1"/></g><g class="cls-2"><circle class="cls-3" cx="296" cy="77.5" r="4"/><circle class="cls-3" cx="288.82" cy="77.5" r="3.93"/><circle class="cls-3" cx="281.65" cy="77.5" r="3.85"/><circle class="cls-3" cx="274.47" cy="77.5" r="3.78"/><circle class="cls-3" cx="267.29" cy="77.5" r="3.71"/><circle class="cls-3" cx="260.12" cy="77.5" r="3.63"/><circle class="cls-3" cx="252.94" cy="77.5" r="3.56"/><circle class="cls-3" cx="245.76" cy="77.5" r="3.49"/><circle class="cls-3" cx="238.59" cy="77.5" r="3.41"/><circle class="cls-3" cx="231.41" cy="77.5" r="3.34"/><circle class="cls-3" cx="224.23" cy="77.5" r="3.27"/><circle class="cls-3" cx="217.05" cy="77.5" r="3.2"/><circle class="cls-3" cx="209.88" cy="77.5" r="3.12"/><circle class="cls-3" cx="202.7" cy="77.5" r="3.05"/><circle class="cls-3" cx="195.52" cy="77.5" r="2.98"/><circle class="cls-3" cx="188.35" cy="77.5" r="2.9"/><circle class="cls-3" cx="181.17" cy="77.5" r="2.83"/><circle class="cls-3" cx="173.99" cy="77.5" r="2.76"/><circle class="cls-3" cx="166.82" cy="77.5" r="2.68"/><circle class="cls-3" cx="159.64" cy="77.5" r="2.61"/><circle class="cls-3" cx="152.46" cy="77.5" r="2.54"/><circle class="cls-3" cx="145.29" cy="77.5" r="2.46"/><circle class="cls-3" cx="138.11" cy="77.5" r="2.39"/><circle class="cls-3" cx="130.93" cy="77.5" r="2.32"/><circle class="cls-3" cx="123.76" cy="77.5" r="2.24"/><circle class="cls-3" cx="116.58" cy="77.5" r="2.17"/><circle class="cls-3" cx="109.4" cy="77.5" r="2.1"/><circle class="cls-3" cx="102.23" cy="77.5" r="2.02"/><circle class="cls-3" cx="95.05" cy="77.5" r="1.95"/><circle class="cls-3" cx="87.87" cy="77.5" r="1.88"/><circle class="cls-3" cx="80.7" cy="77.5" r="1.8"/><circle class="cls-3" cx="73.52" cy="77.5" r="1.73"/><circle class="cls-3" cx="66.34" cy="77.5" r="1.66"/><circle class="cls-3" cx="59.16" cy="77.5" r="1.59"/><circle class="cls-3" cx="51.99" cy="77.5" r="1.51"/><circle class="cls-3" cx="44.81" cy="77.5" r="1.44"/><circle class="cls-3" cx="37.63" cy="77.5" r="1.37"/><circle class="cls-3" cx="30.46" cy="77.5" r="1.29"/><circle class="cls-3" cx="23.28" cy="77.5" r="1.22"/><circle class="cls-3" cx="16.1" cy="77.5" r="1.15"/><circle class="cls-3" cx="8.93" cy="77.5" r="1.07"/><circle class="cls-3" cx="1.75" cy="77.5" r="1"/></g><g class="cls-2"><circle class="cls-3" cx="296" cy="85.67" r="4"/><circle class="cls-3" cx="288.82" cy="85.67" r="3.93"/><circle class="cls-3" cx="281.65" cy="85.67" r="3.85"/><circle class="cls-3" cx="274.47" cy="85.67" r="3.78"/><circle class="cls-3" cx="267.29" cy="85.67" r="3.71"/><circle class="cls-3" cx="260.12" cy="85.67" r="3.63"/><circle class="cls-3" cx="252.94" cy="85.67" r="3.56"/><circle class="cls-3" cx="245.76" cy="85.67" r="3.49"/><circle class="cls-3" cx="238.59" cy="85.67" r="3.41"/><circle class="cls-3" cx="231.41" cy="85.67" r="3.34"/><circle class="cls-3" cx="224.23" cy="85.67" r="3.27"/><circle class="cls-3" cx="217.05" cy="85.67" r="3.2"/><circle class="cls-3" cx="209.88" cy="85.67" r="3.12"/><circle class="cls-3" cx="202.7" cy="85.67" r="3.05"/><circle class="cls-3" cx="195.52" cy="85.67" r="2.98"/><circle class="cls-3" cx="188.35" cy="85.67" r="2.9"/><circle class="cls-3" cx="181.17" cy="85.67" r="2.83"/><circle class="cls-3" cx="173.99" cy="85.67" r="2.76"/><circle class="cls-3" cx="166.82" cy="85.67" r="2.68"/><circle class="cls-3" cx="159.64" cy="85.67" r="2.61"/><circle class="cls-3" cx="152.46" cy="85.67" r="2.54"/><circle class="cls-3" cx="145.29" cy="85.67" r="2.46"/><circle class="cls-3" cx="138.11" cy="85.67" r="2.39"/><circle class="cls-3" cx="130.93" cy="85.67" r="2.32"/><circle class="cls-3" cx="123.76" cy="85.67" r="2.24"/><circle class="cls-3" cx="116.58" cy="85.67" r="2.17"/><circle class="cls-3" cx="109.4" cy="85.67" r="2.1"/><circle class="cls-3" cx="102.23" cy="85.67" r="2.02"/><circle class="cls-3" cx="95.05" cy="85.67" r="1.95"/><circle class="cls-3" cx="87.87" cy="85.67" r="1.88"/><circle class="cls-3" cx="80.7" cy="85.67" r="1.8"/><circle class="cls-3" cx="73.52" cy="85.67" r="1.73"/><circle class="cls-3" cx="66.34" cy="85.67" r="1.66"/><circle class="cls-3" cx="59.16" cy="85.67" r="1.59"/><circle class="cls-3" cx="51.99" cy="85.67" r="1.51"/><circle class="cls-3" cx="44.81" cy="85.67" r="1.44"/><circle class="cls-3" cx="37.63" cy="85.67" r="1.37"/><circle class="cls-3" cx="30.46" cy="85.67" r="1.29"/><circle class="cls-3" cx="23.28" cy="85.67" r="1.22"/><circle class="cls-3" cx="16.1" cy="85.67" r="1.15"/><circle class="cls-3" cx="8.93" cy="85.67" r="1.07"/><circle class="cls-3" cx="1.75" cy="85.67" r="1"/></g><g class="cls-2"><circle class="cls-3" cx="296" cy="93.83" r="4"/><circle class="cls-3" cx="288.82" cy="93.83" r="3.93"/><circle class="cls-3" cx="281.65" cy="93.83" r="3.85"/><circle class="cls-3" cx="274.47" cy="93.83" r="3.78"/><circle class="cls-3" cx="267.29" cy="93.83" r="3.71"/><circle class="cls-3" cx="260.12" cy="93.83" r="3.63"/><circle class="cls-3" cx="252.94" cy="93.83" r="3.56"/><circle class="cls-3" cx="245.76" cy="93.83" r="3.49"/><circle class="cls-3" cx="238.59" cy="93.83" r="3.41"/><circle class="cls-3" cx="231.41" cy="93.83" r="3.34"/><circle class="cls-3" cx="224.23" cy="93.83" r="3.27"/><circle class="cls-3" cx="217.05" cy="93.83" r="3.2"/><circle class="cls-3" cx="209.88" cy="93.83" r="3.12"/><circle class="cls-3" cx="202.7" cy="93.83" r="3.05"/><circle class="cls-3" cx="195.52" cy="93.83" r="2.98"/><circle class="cls-3" cx="188.35" cy="93.83" r="2.9"/><circle class="cls-3" cx="181.17" cy="93.83" r="2.83"/><circle class="cls-3" cx="173.99" cy="93.83" r="2.76"/><circle class="cls-3" cx="166.82" cy="93.83" r="2.68"/><circle class="cls-3" cx="159.64" cy="93.83" r="2.61"/><circle class="cls-3" cx="152.46" cy="93.83" r="2.54"/><circle class="cls-3" cx="145.29" cy="93.83" r="2.46"/><circle class="cls-3" cx="138.11" cy="93.83" r="2.39"/><circle class="cls-3" cx="130.93" cy="93.83" r="2.32"/><circle class="cls-3" cx="123.76" cy="93.83" r="2.24"/><circle class="cls-3" cx="116.58" cy="93.83" r="2.17"/><circle class="cls-3" cx="109.4" cy="93.83" r="2.1"/><circle class="cls-3" cx="102.23" cy="93.83" r="2.02"/><circle class="cls-3" cx="95.05" cy="93.83" r="1.95"/><circle class="cls-3" cx="87.87" cy="93.83" r="1.88"/><circle class="cls-3" cx="80.7" cy="93.83" r="1.8"/><circle class="cls-3" cx="73.52" cy="93.83" r="1.73"/><circle class="cls-3" cx="66.34" cy="93.83" r="1.66"/><circle class="cls-3" cx="59.16" cy="93.83" r="1.59"/><circle class="cls-3" cx="51.99" cy="93.83" r="1.51"/><circle class="cls-3" cx="44.81" cy="93.83" r="1.44"/><circle class="cls-3" cx="37.63" cy="93.83" r="1.37"/><circle class="cls-3" cx="30.46" cy="93.83" r="1.29"/><circle class="cls-3" cx="23.28" cy="93.83" r="1.22"/><circle class="cls-3" cx="16.1" cy="93.83" r="1.15"/><circle class="cls-3" cx="8.93" cy="93.83" r="1.07"/><circle class="cls-3" cx="1.75" cy="93.83" r="1"/></g><g class="cls-2"><circle class="cls-3" cx="296" cy="102" r="4"/><circle class="cls-3" cx="288.82" cy="102" r="3.93"/><circle class="cls-3" cx="281.65" cy="102" r="3.85"/><circle class="cls-3" cx="274.47" cy="102" r="3.78"/><circle class="cls-3" cx="267.29" cy="102" r="3.71"/><circle class="cls-3" cx="260.12" cy="102" r="3.63"/><circle class="cls-3" cx="252.94" cy="102" r="3.56"/><circle class="cls-3" cx="245.76" cy="102" r="3.49"/><circle class="cls-3" cx="238.59" cy="102" r="3.41"/><circle class="cls-3" cx="231.41" cy="102" r="3.34"/><circle class="cls-3" cx="224.23" cy="102" r="3.27"/><circle class="cls-3" cx="217.05" cy="102" r="3.2"/><circle class="cls-3" cx="209.88" cy="102" r="3.12"/><circle class="cls-3" cx="202.7" cy="102" r="3.05"/><circle class="cls-3" cx="195.52" cy="102" r="2.98"/><circle class="cls-3" cx="188.35" cy="102" r="2.9"/><circle class="cls-3" cx="181.17" cy="102" r="2.83"/><circle class="cls-3" cx="173.99" cy="102" r="2.76"/><circle class="cls-3" cx="166.82" cy="102" r="2.68"/><circle class="cls-3" cx="159.64" cy="102" r="2.61"/><circle class="cls-3" cx="152.46" cy="102" r="2.54"/><circle class="cls-3" cx="145.29" cy="102" r="2.46"/><circle class="cls-3" cx="138.11" cy="102" r="2.39"/><circle class="cls-3" cx="130.93" cy="102" r="2.32"/><circle class="cls-3" cx="123.76" cy="102" r="2.24"/><circle class="cls-3" cx="116.58" cy="102" r="2.17"/><circle class="cls-3" cx="109.4" cy="102" r="2.1"/><circle class="cls-3" cx="102.23" cy="102" r="2.02"/><circle class="cls-3" cx="95.05" cy="102" r="1.95"/><circle class="cls-3" cx="87.87" cy="102" r="1.88"/><circle class="cls-3" cx="80.7" cy="102" r="1.8"/><circle class="cls-3" cx="73.52" cy="102" r="1.73"/><circle class="cls-3" cx="66.34" cy="102" r="1.66"/><circle class="cls-3" cx="59.16" cy="102" r="1.59"/><circle class="cls-3" cx="51.99" cy="102" r="1.51"/><circle class="cls-3" cx="44.81" cy="102" r="1.44"/><circle class="cls-3" cx="37.63" cy="102" r="1.37"/><circle class="cls-3" cx="30.46" cy="102" r="1.29"/><circle class="cls-3" cx="23.28" cy="102" r="1.22"/><circle class="cls-3" cx="16.1" cy="102" r="1.15"/><circle class="cls-3" cx="8.93" cy="102" r="1.07"/><circle class="cls-3" cx="1.75" cy="102" r="1"/></g><g class="cls-2"><circle class="cls-3" cx="296" cy="110.17" r="4"/><circle class="cls-3" cx="288.82" cy="110.17" r="3.93"/><circle class="cls-3" cx="281.65" cy="110.17" r="3.85"/><circle class="cls-3" cx="274.47" cy="110.17" r="3.78"/><circle class="cls-3" cx="267.29" cy="110.17" r="3.71"/><circle class="cls-3" cx="260.12" cy="110.17" r="3.63"/><circle class="cls-3" cx="252.94" cy="110.17" r="3.56"/><circle class="cls-3" cx="245.76" cy="110.17" r="3.49"/><circle class="cls-3" cx="238.59" cy="110.17" r="3.41"/><circle class="cls-3" cx="231.41" cy="110.17" r="3.34"/><circle class="cls-3" cx="224.23" cy="110.17" r="3.27"/><circle class="cls-3" cx="217.05" cy="110.17" r="3.2"/><circle class="cls-3" cx="209.88" cy="110.17" r="3.12"/><circle class="cls-3" cx="202.7" cy="110.17" r="3.05"/><circle class="cls-3" cx="195.52" cy="110.17" r="2.98"/><circle class="cls-3" cx="188.35" cy="110.17" r="2.9"/><circle class="cls-3" cx="181.17" cy="110.17" r="2.83"/><circle class="cls-3" cx="173.99" cy="110.17" r="2.76"/><circle class="cls-3" cx="166.82" cy="110.17" r="2.68"/><circle class="cls-3" cx="159.64" cy="110.17" r="2.61"/><circle class="cls-3" cx="152.46" cy="110.17" r="2.54"/><circle class="cls-3" cx="145.29" cy="110.17" r="2.46"/><circle class="cls-3" cx="138.11" cy="110.17" r="2.39"/><circle class="cls-3" cx="130.93" cy="110.17" r="2.32"/><circle class="cls-3" cx="123.76" cy="110.17" r="2.24"/><circle class="cls-3" cx="116.58" cy="110.17" r="2.17"/><circle class="cls-3" cx="109.4" cy="110.17" r="2.1"/><circle class="cls-3" cx="102.23" cy="110.17" r="2.02"/><circle class="cls-3" cx="95.05" cy="110.17" r="1.95"/><circle class="cls-3" cx="87.87" cy="110.17" r="1.88"/><circle class="cls-3" cx="80.7" cy="110.17" r="1.8"/><circle class="cls-3" cx="73.52" cy="110.17" r="1.73"/><circle class="cls-3" cx="66.34" cy="110.17" r="1.66"/><circle class="cls-3" cx="59.16" cy="110.17" r="1.59"/><circle class="cls-3" cx="51.99" cy="110.17" r="1.51"/><circle class="cls-3" cx="44.81" cy="110.17" r="1.44"/><circle class="cls-3" cx="37.63" cy="110.17" r="1.37"/><circle class="cls-3" cx="30.46" cy="110.17" r="1.29"/><circle class="cls-3" cx="23.28" cy="110.17" r="1.22"/><circle class="cls-3" cx="16.1" cy="110.17" r="1.15"/><circle class="cls-3" cx="8.93" cy="110.17" r="1.07"/><circle class="cls-3" cx="1.75" cy="110.17" r="1"/></g><g class="cls-2"><circle class="cls-3" cx="296" cy="118.33" r="4"/><circle class="cls-3" cx="288.82" cy="118.33" r="3.93"/><circle class="cls-3" cx="281.65" cy="118.33" r="3.85"/><circle class="cls-3" cx="274.47" cy="118.33" r="3.78"/><circle class="cls-3" cx="267.29" cy="118.33" r="3.71"/><circle class="cls-3" cx="260.12" cy="118.33" r="3.63"/><circle class="cls-3" cx="252.94" cy="118.33" r="3.56"/><circle class="cls-3" cx="245.76" cy="118.33" r="3.49"/><circle class="cls-3" cx="238.59" cy="118.33" r="3.41"/><circle class="cls-3" cx="231.41" cy="118.33" r="3.34"/><circle class="cls-3" cx="224.23" cy="118.33" r="3.27"/><circle class="cls-3" cx="217.05" cy="118.33" r="3.2"/><circle class="cls-3" cx="209.88" cy="118.33" r="3.12"/><circle class="cls-3" cx="202.7" cy="118.33" r="3.05"/><circle class="cls-3" cx="195.52" cy="118.33" r="2.98"/><circle class="cls-3" cx="188.35" cy="118.33" r="2.9"/><circle class="cls-3" cx="181.17" cy="118.33" r="2.83"/><circle class="cls-3" cx="173.99" cy="118.33" r="2.76"/><circle class="cls-3" cx="166.82" cy="118.33" r="2.68"/><circle class="cls-3" cx="159.64" cy="118.33" r="2.61"/><circle class="cls-3" cx="152.46" cy="118.33" r="2.54"/><circle class="cls-3" cx="145.29" cy="118.33" r="2.46"/><circle class="cls-3" cx="138.11" cy="118.33" r="2.39"/><circle class="cls-3" cx="130.93" cy="118.33" r="2.32"/><circle class="cls-3" cx="123.76" cy="118.33" r="2.24"/><circle class="cls-3" cx="116.58" cy="118.33" r="2.17"/><circle class="cls-3" cx="109.4" cy="118.33" r="2.1"/><circle class="cls-3" cx="102.23" cy="118.33" r="2.02"/><circle class="cls-3" cx="95.05" cy="118.33" r="1.95"/><circle class="cls-3" cx="87.87" cy="118.33" r="1.88"/><circle class="cls-3" cx="80.7" cy="118.33" r="1.8"/><circle class="cls-3" cx="73.52" cy="118.33" r="1.73"/><circle class="cls-3" cx="66.34" cy="118.33" r="1.66"/><circle class="cls-3" cx="59.16" cy="118.33" r="1.59"/><circle class="cls-3" cx="51.99" cy="118.33" r="1.51"/><circle class="cls-3" cx="44.81" cy="118.33" r="1.44"/><circle class="cls-3" cx="37.63" cy="118.33" r="1.37"/><circle class="cls-3" cx="30.46" cy="118.33" r="1.29"/><circle class="cls-3" cx="23.28" cy="118.33" r="1.22"/><circle class="cls-3" cx="16.1" cy="118.33" r="1.15"/><circle class="cls-3" cx="8.93" cy="118.33" r="1.07"/><circle class="cls-3" cx="1.75" cy="118.33" r="1"/></g><g class="cls-2"><circle class="cls-3" cx="296" cy="126.5" r="4"/><circle class="cls-3" cx="288.82" cy="126.5" r="3.93"/><circle class="cls-3" cx="281.65" cy="126.5" r="3.85"/><circle class="cls-3" cx="274.47" cy="126.5" r="3.78"/><circle class="cls-3" cx="267.29" cy="126.5" r="3.71"/><circle class="cls-3" cx="260.12" cy="126.5" r="3.63"/><circle class="cls-3" cx="252.94" cy="126.5" r="3.56"/><circle class="cls-3" cx="245.76" cy="126.5" r="3.49"/><circle class="cls-3" cx="238.59" cy="126.5" r="3.41"/><circle class="cls-3" cx="231.41" cy="126.5" r="3.34"/><circle class="cls-3" cx="224.23" cy="126.5" r="3.27"/><circle class="cls-3" cx="217.05" cy="126.5" r="3.2"/><circle class="cls-3" cx="209.88" cy="126.5" r="3.12"/><circle class="cls-3" cx="202.7" cy="126.5" r="3.05"/><circle class="cls-3" cx="195.52" cy="126.5" r="2.98"/><circle class="cls-3" cx="188.35" cy="126.5" r="2.9"/><circle class="cls-3" cx="181.17" cy="126.5" r="2.83"/><circle class="cls-3" cx="173.99" cy="126.5" r="2.76"/><circle class="cls-3" cx="166.82" cy="126.5" r="2.68"/><circle class="cls-3" cx="159.64" cy="126.5" r="2.61"/><circle class="cls-3" cx="152.46" cy="126.5" r="2.54"/><circle class="cls-3" cx="145.29" cy="126.5" r="2.46"/><circle class="cls-3" cx="138.11" cy="126.5" r="2.39"/><circle class="cls-3" cx="130.93" cy="126.5" r="2.32"/><circle class="cls-3" cx="123.76" cy="126.5" r="2.24"/><circle class="cls-3" cx="116.58" cy="126.5" r="2.17"/><circle class="cls-3" cx="109.4" cy="126.5" r="2.1"/><circle class="cls-3" cx="102.23" cy="126.5" r="2.02"/><circle class="cls-3" cx="95.05" cy="126.5" r="1.95"/><circle class="cls-3" cx="87.87" cy="126.5" r="1.88"/><circle class="cls-3" cx="80.7" cy="126.5" r="1.8"/><circle class="cls-3" cx="73.52" cy="126.5" r="1.73"/><circle class="cls-3" cx="66.34" cy="126.5" r="1.66"/><circle class="cls-3" cx="59.16" cy="126.5" r="1.59"/><circle class="cls-3" cx="51.99" cy="126.5" r="1.51"/><circle class="cls-3" cx="44.81" cy="126.5" r="1.44"/><circle class="cls-3" cx="37.63" cy="126.5" r="1.37"/><circle class="cls-3" cx="30.46" cy="126.5" r="1.29"/><circle class="cls-3" cx="23.28" cy="126.5" r="1.22"/><circle class="cls-3" cx="16.1" cy="126.5" r="1.15"/><circle class="cls-3" cx="8.93" cy="126.5" r="1.07"/><circle class="cls-3" cx="1.75" cy="126.5" r="1"/></g><g class="cls-2"><circle class="cls-3" cx="296" cy="134.67" r="4"/><circle class="cls-3" cx="288.82" cy="134.67" r="3.93"/><circle class="cls-3" cx="281.65" cy="134.67" r="3.85"/><circle class="cls-3" cx="274.47" cy="134.67" r="3.78"/><circle class="cls-3" cx="267.29" cy="134.67" r="3.71"/><circle class="cls-3" cx="260.12" cy="134.67" r="3.63"/><circle class="cls-3" cx="252.94" cy="134.67" r="3.56"/><circle class="cls-3" cx="245.76" cy="134.67" r="3.49"/><circle class="cls-3" cx="238.59" cy="134.67" r="3.41"/><circle class="cls-3" cx="231.41" cy="134.67" r="3.34"/><circle class="cls-3" cx="224.23" cy="134.67" r="3.27"/><circle class="cls-3" cx="217.05" cy="134.67" r="3.2"/><circle class="cls-3" cx="209.88" cy="134.67" r="3.12"/><circle class="cls-3" cx="202.7" cy="134.67" r="3.05"/><circle class="cls-3" cx="195.52" cy="134.67" r="2.98"/><circle class="cls-3" cx="188.35" cy="134.67" r="2.9"/><circle class="cls-3" cx="181.17" cy="134.67" r="2.83"/><circle class="cls-3" cx="173.99" cy="134.67" r="2.76"/><circle class="cls-3" cx="166.82" cy="134.67" r="2.68"/><circle class="cls-3" cx="159.64" cy="134.67" r="2.61"/><circle class="cls-3" cx="152.46" cy="134.67" r="2.54"/><circle class="cls-3" cx="145.29" cy="134.67" r="2.46"/><circle class="cls-3" cx="138.11" cy="134.67" r="2.39"/><circle class="cls-3" cx="130.93" cy="134.67" r="2.32"/><circle class="cls-3" cx="123.76" cy="134.67" r="2.24"/><circle class="cls-3" cx="116.58" cy="134.67" r="2.17"/><circle class="cls-3" cx="109.4" cy="134.67" r="2.1"/><circle class="cls-3" cx="102.23" cy="134.67" r="2.02"/><circle class="cls-3" cx="95.05" cy="134.67" r="1.95"/><circle class="cls-3" cx="87.87" cy="134.67" r="1.88"/><circle class="cls-3" cx="80.7" cy="134.67" r="1.8"/><circle class="cls-3" cx="73.52" cy="134.67" r="1.73"/><circle class="cls-3" cx="66.34" cy="134.67" r="1.66"/><circle class="cls-3" cx="59.16" cy="134.67" r="1.59"/><circle class="cls-3" cx="51.99" cy="134.67" r="1.51"/><circle class="cls-3" cx="44.81" cy="134.67" r="1.44"/><circle class="cls-3" cx="37.63" cy="134.67" r="1.37"/><circle class="cls-3" cx="30.46" cy="134.67" r="1.29"/><circle class="cls-3" cx="23.28" cy="134.67" r="1.22"/><circle class="cls-3" cx="16.1" cy="134.67" r="1.15"/><circle class="cls-3" cx="8.93" cy="134.67" r="1.07"/><circle class="cls-3" cx="1.75" cy="134.67" r="1"/></g><g class="cls-2"><circle class="cls-3" cx="296" cy="142.83" r="4"/><circle class="cls-3" cx="288.82" cy="142.83" r="3.93"/><circle class="cls-3" cx="281.65" cy="142.83" r="3.85"/><circle class="cls-3" cx="274.47" cy="142.83" r="3.78"/><circle class="cls-3" cx="267.29" cy="142.83" r="3.71"/><circle class="cls-3" cx="260.12" cy="142.83" r="3.63"/><circle class="cls-3" cx="252.94" cy="142.83" r="3.56"/><circle class="cls-3" cx="245.76" cy="142.83" r="3.49"/><circle class="cls-3" cx="238.59" cy="142.83" r="3.41"/><circle class="cls-3" cx="231.41" cy="142.83" r="3.34"/><circle class="cls-3" cx="224.23" cy="142.83" r="3.27"/><circle class="cls-3" cx="217.05" cy="142.83" r="3.2"/><circle class="cls-3" cx="209.88" cy="142.83" r="3.12"/><circle class="cls-3" cx="202.7" cy="142.83" r="3.05"/><circle class="cls-3" cx="195.52" cy="142.83" r="2.98"/><circle class="cls-3" cx="188.35" cy="142.83" r="2.9"/><circle class="cls-3" cx="181.17" cy="142.83" r="2.83"/><circle class="cls-3" cx="173.99" cy="142.83" r="2.76"/><circle class="cls-3" cx="166.82" cy="142.83" r="2.68"/><circle class="cls-3" cx="159.64" cy="142.83" r="2.61"/><circle class="cls-3" cx="152.46" cy="142.83" r="2.54"/><circle class="cls-3" cx="145.29" cy="142.83" r="2.46"/><circle class="cls-3" cx="138.11" cy="142.83" r="2.39"/><circle class="cls-3" cx="130.93" cy="142.83" r="2.32"/><circle class="cls-3" cx="123.76" cy="142.83" r="2.24"/><circle class="cls-3" cx="116.58" cy="142.83" r="2.17"/><circle class="cls-3" cx="109.4" cy="142.83" r="2.1"/><circle class="cls-3" cx="102.23" cy="142.83" r="2.02"/><circle class="cls-3" cx="95.05" cy="142.83" r="1.95"/><circle class="cls-3" cx="87.87" cy="142.83" r="1.88"/><circle class="cls-3" cx="80.7" cy="142.83" r="1.8"/><circle class="cls-3" cx="73.52" cy="142.83" r="1.73"/><circle class="cls-3" cx="66.34" cy="142.83" r="1.66"/><circle class="cls-3" cx="59.16" cy="142.83" r="1.59"/><circle class="cls-3" cx="51.99" cy="142.83" r="1.51"/><circle class="cls-3" cx="44.81" cy="142.83" r="1.44"/><circle class="cls-3" cx="37.63" cy="142.83" r="1.37"/><circle class="cls-3" cx="30.46" cy="142.83" r="1.29"/><circle class="cls-3" cx="23.28" cy="142.83" r="1.22"/><circle class="cls-3" cx="16.1" cy="142.83" r="1.15"/><circle class="cls-3" cx="8.93" cy="142.83" r="1.07"/><circle class="cls-3" cx="1.75" cy="142.83" r="1"/></g><g class="cls-2"><circle class="cls-3" cx="296" cy="151" r="4"/><circle class="cls-3" cx="288.82" cy="151" r="3.93"/><circle class="cls-3" cx="281.65" cy="151" r="3.85"/><circle class="cls-3" cx="274.47" cy="151" r="3.78"/><circle class="cls-3" cx="267.29" cy="151" r="3.71"/><circle class="cls-3" cx="260.12" cy="151" r="3.63"/><circle class="cls-3" cx="252.94" cy="151" r="3.56"/><circle class="cls-3" cx="245.76" cy="151" r="3.49"/><circle class="cls-3" cx="238.59" cy="151" r="3.41"/><circle class="cls-3" cx="231.41" cy="151" r="3.34"/><circle class="cls-3" cx="224.23" cy="151" r="3.27"/><circle class="cls-3" cx="217.05" cy="151" r="3.2"/><circle class="cls-3" cx="209.88" cy="151" r="3.12"/><circle class="cls-3" cx="202.7" cy="151" r="3.05"/><circle class="cls-3" cx="195.52" cy="151" r="2.98"/><circle class="cls-3" cx="188.35" cy="151" r="2.9"/><circle class="cls-3" cx="181.17" cy="151" r="2.83"/><circle class="cls-3" cx="173.99" cy="151" r="2.76"/><circle class="cls-3" cx="166.82" cy="151" r="2.68"/><circle class="cls-3" cx="159.64" cy="151" r="2.61"/><circle class="cls-3" cx="152.46" cy="151" r="2.54"/><circle class="cls-3" cx="145.29" cy="151" r="2.46"/><circle class="cls-3" cx="138.11" cy="151" r="2.39"/><circle class="cls-3" cx="130.93" cy="151" r="2.32"/><circle class="cls-3" cx="123.76" cy="151" r="2.24"/><circle class="cls-3" cx="116.58" cy="151" r="2.17"/><circle class="cls-3" cx="109.4" cy="151" r="2.1"/><circle class="cls-3" cx="102.23" cy="151" r="2.02"/><circle class="cls-3" cx="95.05" cy="151" r="1.95"/><circle class="cls-3" cx="87.87" cy="151" r="1.88"/><circle class="cls-3" cx="80.7" cy="151" r="1.8"/><circle class="cls-3" cx="73.52" cy="151" r="1.73"/><circle class="cls-3" cx="66.34" cy="151" r="1.66"/><circle class="cls-3" cx="59.16" cy="151" r="1.59"/><circle class="cls-3" cx="51.99" cy="151" r="1.51"/><circle class="cls-3" cx="44.81" cy="151" r="1.44"/><circle class="cls-3" cx="37.63" cy="151" r="1.37"/><circle class="cls-3" cx="30.46" cy="151" r="1.29"/><circle class="cls-3" cx="23.28" cy="151" r="1.22"/><circle class="cls-3" cx="16.1" cy="151" r="1.15"/><circle class="cls-3" cx="8.93" cy="151" r="1.07"/><circle class="cls-3" cx="1.75" cy="151" r="1"/></g></svg>